<svg xmlns="http://www.w3.org/2000/svg" xmlns:xlink="http://www.w3.org/1999/xlink"><symbol viewBox="0 0 71 14" id="ITECH" xmlns="http://www.w3.org/2000/svg"><path d="M0 12.912h3.256V.28H0v12.632zm10.694 0h3.246V2.652h5.934V.28H4.752v2.372h5.942v10.26zm10.673 0H34.78V10.54H24.622V7.514h9.29V5.338h-9.29V2.652h10.022V.28H21.367v12.632zm23.064.305c4.786 0 8.296-2.167 8.602-5.559h-3.179c-.28 2.091-2.6 3.247-5.372 3.247-3.17 0-5.457-1.521-5.457-4.3 0-2.806 2.287-4.31 5.457-4.31 2.678 0 4.981 1.199 5.33 3.205h3.179c-.332-3.358-3.8-5.5-8.56-5.5-5.236 0-8.695 2.38-8.695 6.604 0 4.234 3.46 6.613 8.695 6.613zm23.124-.305h3.256V.28h-3.256v4.854h-9.23V.28h-3.256v12.632h3.255V7.497h9.231v5.415z"/></symbol><symbol fill="none" viewBox="0 0 10 6" id="V" xmlns="http://www.w3.org/2000/svg"><path d="M9 1L5 5 1 1" stroke="#8D3332"/></symbol><symbol fill="none" viewBox="0 0 32 32" id="X" xmlns="http://www.w3.org/2000/svg"><path stroke="#8D3332" stroke-linecap="round" d="M6 25.506L26.506 5m-20.405.393l20.506 20.506"/></symbol><symbol fill="none" viewBox="0 0 16 16" id="call-a-doctor" xmlns="http://www.w3.org/2000/svg"><path d="M10.543 9.985H5.45m2.546 2.547V7.439M5.45 4.544V2.02c0-.561.458-1.02 1.02-1.02h3.055c.56 0 1.02.459 1.02 1.019v1.108m3.991 1.838H1.465c-.255 0-.465.184-.465.407v9.22c0 .224.21.408.465.408h13.07c.255 0 .465-.184.465-.408v-9.22c0-.224-.21-.407-.465-.407z" stroke="#8D3332" stroke-miterlimit="10" stroke-linecap="round" stroke-linejoin="round"/></symbol><symbol fill="none" viewBox="0 0 30 30" id="call-button-chat" xmlns="http://www.w3.org/2000/svg"><path d="M29.5 29l-5.08-6.5H2.5a2 2 0 01-2-2v-18a2 2 0 012-2h24.999a2 2 0 012 2.002c-.005 9.15 0 17.172.001 26.498z" fill="#fff" stroke="#BDA47F" stroke-miterlimit="10" stroke-linecap="round" stroke-linejoin="round"/><path d="M11.97 10.25a1 1 0 100-2 1 1 0 000 2zm6 0a1 1 0 100-2 1 1 0 000 2z" fill="#8D3332"/><path d="M19.97 13.25s-2 2-5 2-5-2-5-2" stroke="#8D3332" stroke-miterlimit="10" stroke-linecap="round" stroke-linejoin="round"/></symbol><symbol fill="none" viewBox="0 0 21 21" id="call-button-operator" xmlns="http://www.w3.org/2000/svg"><path d="M20 20l-.496-1.984a2.48 2.48 0 00-1.62-1.75l-3.666-1.223c-.637-.265-1.097-.918-1.394-1.543M1 20l.496-1.984a2.48 2.48 0 011.62-1.75l3.666-1.223c1.24-.516 1.812-2.504 1.812-2.891C6.618 10.52 7 7.052 7 4.718 7 3.238 8.151 1 10.5 1c2.306 0 2.891 1.17 2.891 1.652-.206.207.609.035.609 2.066 0 .253.005.515.013.782" stroke="#C0AF95" stroke-linecap="round" stroke-linejoin="round"/><path d="M7 9c0 .275-.225.5-.5.5h-1A.501.501 0 015 9V7c0-.275.225-.5.5-.5h1c.275 0 .5.225.5.5v2zm7 .001c0 .275.226.5.5.5h1c.275 0 .5-.225.5-.5v-2c0-.275-.225-.5-.5-.5h-1c-.274 0-.5.225-.5.5v2zm-3 2h-1v.5h1v-.5z" stroke="#C0AF95" stroke-miterlimit="10" stroke-linecap="round" stroke-linejoin="round"/><path d="M16 10.001l-3.5 1.5h-1.634" stroke="#C0AF95" stroke-miterlimit="10" stroke-linecap="round" stroke-linejoin="round"/></symbol><symbol fill="none" viewBox="0 0 28 29" id="contacts__hours" xmlns="http://www.w3.org/2000/svg"><path d="M12.92 21.722a8.5 8.5 0 117.23-9.034" stroke="#A58A63" stroke-width="1.5" stroke-miterlimit="10" stroke-linecap="round" stroke-linejoin="round"/><path d="M19.232 22.813h-4.114c-.086 0-.129-.046-.129-.137v-.55c0-.067.022-.122.065-.165l1.86-1.933c.427-.446.745-.816.953-1.11.208-.299.311-.595.311-.888a.85.85 0 00-.238-.614c-.159-.171-.4-.257-.724-.257-.5 0-.99.245-1.466.733-.061.074-.122.07-.183-.009l-.43-.586c-.05-.061-.047-.122.008-.184.593-.64 1.283-.962 2.071-.962.605 0 1.097.162 1.476.486.384.324.577.782.577 1.375 0 .397-.104.772-.312 1.127-.201.354-.522.782-.962 1.283-.373.427-.828.895-1.365 1.402h2.602c.092 0 .138.045.138.137v.715c0 .091-.046.137-.138.137zm4.761 0h-.797c-.092 0-.138-.046-.138-.137v-1.21h-2.886c-.092 0-.138-.046-.138-.137v-.596c0-.06.016-.116.046-.165l2.245-4.206c.037-.067.089-.1.156-.1h.925c.056 0 .092.018.11.054.019.03.016.068-.009.11l-2.162 4.06h1.713l.019-1.274c.012-.085.058-.128.137-.128h.779c.092 0 .137.043.137.128v1.274h.56c.091 0 .137.043.137.128v.715c0 .091-.046.137-.138.137h-.559v1.21c0 .091-.045.137-.137.137z" fill="#8D3332"/><path d="M7.868 11.218l3.704 3.704 3.884-3.884" stroke="#8D3332" stroke-width="1.5" stroke-linecap="round"/></symbol><symbol fill="none" viewBox="0 0 28 29" id="contacts__map-point" xmlns="http://www.w3.org/2000/svg"><path fill-rule="evenodd" clip-rule="evenodd" d="M20.012 15.118l-4.96 9.078-.006.012c-.218.379-.61.605-1.046.605-.437 0-.827-.226-1.046-.605l-.006-.012-4.96-9.078a6.963 6.963 0 01.09-6.88c2.593-4.474 9.242-4.487 11.843 0a6.963 6.963 0 01.09 6.88zm1.207-7.632a8.463 8.463 0 01.11 8.351l-4.964 9.085-.02.034A2.694 2.694 0 0114 26.313c-.974 0-1.86-.513-2.345-1.356l-.02-.034-.004-.008-4.96-9.078a8.463 8.463 0 01.11-8.35c3.169-5.47 11.258-5.488 14.438 0z" fill="#A58A63"/><path fill-rule="evenodd" clip-rule="evenodd" d="M14 15.938a4.316 4.316 0 01-4.313-4.312A4.316 4.316 0 0114 7.313a4.316 4.316 0 014.312 4.313A4.316 4.316 0 0114 15.939zm0-1.5a2.816 2.816 0 01-2.813-2.812A2.816 2.816 0 0114 8.813a2.816 2.816 0 012.812 2.813A2.816 2.816 0 0114 14.439z" fill="#8D3332"/></symbol><symbol fill="none" viewBox="0 0 28 29" id="contacts__parking" xmlns="http://www.w3.org/2000/svg"><path d="M8.633 19.814H6.708a.693.693 0 01-.688-.694V6.524c0-.382.31-.694.688-.694h13.603c.38 0 .69.312.69.694V19.12c0 .381-.31.694-.69.694h-4.896" stroke="#A58A63" stroke-width="1.5" stroke-miterlimit="10" stroke-linecap="round" stroke-linejoin="round"/><path d="M10.996 19.814v-4.737m0 0V8.914a.1.1 0 01.1-.1h2.9a3 3 0 013 3v.263a3 3 0 01-3 3h-3z" stroke="#8D3332" stroke-width="1.5" stroke-linecap="round"/></symbol><symbol fill="none" viewBox="0 0 28 29" id="contacts__phone" xmlns="http://www.w3.org/2000/svg"><path d="M8.022 7.235L5.439 9.427l-.014.015c-1.118 1.117 1.096 5.15 5.002 9.053 3.906 3.906 8.023 6.21 9.14 5.092l.015-.014 2.192-2.6-3.98-3.252-2.531 1.808-5.787-5.787 1.808-2.532-3.262-3.975z" stroke="#A58A63" stroke-width="1.5" stroke-miterlimit="10" stroke-linecap="round" stroke-linejoin="round"/><path d="M14.523 8.867v0a5.232 5.232 0 015.232 5.232v0m-5.098-8.273v0a8.139 8.139 0 018.139 8.14v0" stroke="#8D3332" stroke-width="1.5" stroke-linecap="round"/></symbol><symbol fill="none" viewBox="0 0 77 76" id="f-ankets" xmlns="http://www.w3.org/2000/svg"><path fill-rule="evenodd" clip-rule="evenodd" d="M31.005 37.374l2.579-2.063h10.053l2.305 2.05-.603 10.86-6.724 3.213-6.413-2.905-1.197-11.155zm9.894-.197c-1.192-1.026-3.242-.606-3.837.864-.263 1.027.452.537.93.187.097-.072.173-.21.25-.35.148-.27.302-.55.631-.397.5-.023 2.074 1.914 1.978 1.96-.84.027-1.708.013-2.576-.002-1.373-.024-2.746-.047-4.002.096.431 1.248 1.82 1.63 2.951 1.94.307.085.595.164.839.254-.096.218-.085.477-.075.736.006.13.011.26.003.384-.01.17-.18.312-.369.469-.224.186-.474.394-.513.698-.262.607.072 1.354.787 1.4.131.049.115.208.1.356-.006.066-.012.13-.005.181 0 .06-.057.072-.117.085a.284.284 0 00-.097.032c-.858.14-1.693.467-2.36 1.027.234.026.518.006.805-.014.474-.033.954-.067 1.22.107-1.453 2.054 2.098 3.408 2.003 1.237l-.024.024c0-.028-.016-.039-.03-.048-.01-.007-.017-.013-.017-.022 0-.047-.096-.024-.072 0-.238.98-1.668.116-1.049-.63l.027-.027c.138-.14.665-.674.95-.674.22 0 .454.008.692.015.612.02 1.255.04 1.788-.061-.258-.312-.65-.463-1.03-.61a3.987 3.987 0 01-.615-.277c.5-.537.024-1.517-.644-1.634h-.024c-.075.003-.188.006-.166-.14a.675.675 0 00.001-.229c-.014-.142-.028-.289.094-.378 1.698-.763 2.375-2.001 3.138-3.399.148-.27.3-.546.461-.826.03-.12-.124-.105-.271-.091a.55.55 0 01-.206-.002c-.119 0-.166-.047-.166-.163-.12-.35-.477-1.214-1.383-2.078z" fill="#C43638"/><path fill-rule="evenodd" clip-rule="evenodd" d="M51.5 26.265c-1.078-.946-2.629-.924-3.518-.65.582-.715 1.94-1.302 2.34-1.373.304.114 1.178 1.012 1.178 2.023zm3.442-3.915c-.428-2.292-3.818-2.281-7.413-2.269-2.352.008-4.793.016-6.55-.621-.084 1.105 1.367 2.877 2.756 3.532-2.16 1.876-4.12 5.484-4.779 9.942h5.204c-.746-4.386 3.524-10.22 8.437-9.478 1.23.187 1.618 1.019 1.693 1.273.417-.352.803-1.576.652-2.379zm-6.704 16.557l-.266 4.774c1.19-1.08 2.862-1.35 3.724-1.35.424 2.548 1.181 4.659 2.165 5.795 1.602 1.846 4.219 1.82 5.353.544a.092.092 0 00-.026-.143c-.666-.383-4.48-2.724-5.243-6.561.3-.102.592-.222.877-.361 1.231 2.037 3.023 3.852 4.465 4.545 2.424 1.162 4.642.597 5.626-1.105.035-.06-.008-.134-.08-.14-1.5-.12-6.1-1.439-8.058-4.65a9.24 9.24 0 00.648-.65c2.05 1.56 4.947 2.94 7.022 3.221 2.428.33 5.178-.444 5.245-3.267a.103.103 0 00-.11-.1c-.863.053-6.576.301-10.647-2.036.141-.268.273-.542.395-.82 0 0 6.152 1.454 9.066.972 2.897-.478 4.593-2.637 4.266-5.324a.105.105 0 00-.15-.075c-.86.435-5.904 2.798-12.364 1.924.067-.308.124-.619.17-.93 4.3-.515 7.795-1.244 10.023-2.483 2.539-1.413 3.65-4.787 2.368-7.297-.034-.063-.126-.074-.171-.021-.703.808-5.119 5.612-12.076 7.106-.018-.36-.05-.72-.099-1.078 3.38-1.916 6.678-4.124 8.25-6.143 2.374-3.053 2.155-6.947-.104-8.932a.109.109 0 00-.085-.025.107.107 0 00-.075.048c-.715 1.18-7.407 11.995-14.754 16.664-.09.058-.18.114-.27.168a.347.347 0 00-.055.565c.847.768 1.373 1.836 1.373 3.022 0 2.062-1.59 3.777-3.69 4.15-.738.142-1.7.158-2.713-.007zm-18.973 4.54l-.48-4.474c-.828.09-1.601.06-2.216-.06-2.102-.372-3.692-2.087-3.692-4.15 0-1.185.528-2.254 1.373-3.022a.346.346 0 00-.052-.563 12.52 12.52 0 01-.274-.168c-7.342-4.667-14.03-15.475-14.751-16.662a.11.11 0 00-.077-.05.11.11 0 00-.087.026c-2.256 1.986-2.475 5.878-.1 8.93 1.57 2.02 4.87 4.227 8.248 6.143-.048.358-.08.717-.098 1.078-6.952-1.492-11.364-6.288-12.073-7.102-.048-.056-.142-.045-.174.019-1.28 2.511-.169 5.882 2.368 7.295 2.228 1.24 5.723 1.969 10.023 2.483.046.312.103.622.17.93-6.454.873-11.495-1.484-12.362-1.923-.064-.033-.142.008-.15.076-.327 2.686 1.369 4.843 4.265 5.322 2.914.481 9.065-.973 9.065-.973.122.278.255.552.396.82-4.07 2.337-9.78 2.09-10.648 2.037-.06-.004-.111.045-.11.1.068 2.822 2.817 3.597 5.245 3.267 2.073-.282 4.972-1.661 7.021-3.221.206.226.422.443.649.649-1.96 3.211-6.559 4.53-8.058 4.65-.072.007-.114.081-.08.141.984 1.702 3.202 2.267 5.626 1.105 1.442-.694 3.233-2.508 4.464-4.545.285.138.578.259.878.36-.764 3.837-4.578 6.179-5.244 6.562a.094.094 0 00-.025.143c1.134 1.276 3.751 1.302 5.353-.544.984-1.136 1.74-3.247 2.165-5.795.796 0 2.283.23 3.442 1.115zm4.178-10.514h5.202c-.657-4.457-2.617-8.065-4.777-9.94 1.388-.656 2.841-2.427 2.755-3.533-1.756.637-4.197.63-6.55.622-3.595-.012-6.985-.024-7.414 2.269-.15.803.237 2.026.654 2.378.074-.255.464-1.087 1.693-1.273 4.912-.742 9.183 5.091 8.437 9.478zm23.01-19.288c-.112-.358 3.53-.367 3.53 1.912 0 .757-.535 1.316-1.074 1.88-.55.576-1.105 1.156-1.105 1.956 0 .738.795 1.28 1.038 1.28-.56-2.545 1.759-1.213 2.386-.738-.766-2.103-.002-2.905.636-3.576.4-.42.751-.789.645-1.393-.117-.671-1.075-.808-2.003-.94-.588-.083-1.164-.165-1.506-.38-.417-.263-.855-.728-1.295-1.196-1.212-1.288-2.445-2.6-3.34.21 2.274 2.111.951 5.218-1.935 5.218 0 0-.016.456.01.492 3.443-.169 4.643-2.699 4.013-4.725zm-40.162 6.29c.626-.475 2.946-1.807 2.386.738.242 0 1.037-.542 1.037-1.28 0-.8-.555-1.38-1.105-1.956-.54-.564-1.074-1.123-1.074-1.88 0-2.28 3.642-2.27 3.53-1.912-.629 2.026.571 4.557 4.014 4.725.025-.036.01-.492.01-.492-2.886 0-4.209-3.107-1.936-5.217-.895-2.81-2.128-1.499-3.34-.212-.44.469-.878.934-1.295 1.196-.342.216-.918.298-1.506.381-.928.132-1.886.269-2.003.94-.106.604.245.973.645 1.393.638.67 1.402 1.473.637 3.576zm9.774 6.33c1.08-.946 2.63-.924 3.519-.65-.58-.715-1.94-1.302-2.34-1.373-.304.114-1.179 1.012-1.179 2.023zM40.438 5.047L38.76 3l-1.68 2.048 1.68 2.154 1.68-2.154zm9.586 6.191L48.83 9.783l-1.193 1.455 1.193 1.422 1.194-1.422zm-20.142 0l-1.194-1.455-1.193 1.455 1.194 1.422 1.193-1.422zm-3.42 7.132h4.454c3.744 0 5.43-2.299 5.939-4.292h3.81c.51 1.993 2.193 4.292 5.939 4.292h4.454s.78-1.057.975-1.58c.703-1.884-.196-2.763-1.507-2.763l-1.696 1.537-1.695-1.536c-1.311 0-2.21.878-1.507 2.762.09.24.305.594.508.905-1.58-.217-3.598-1.299-4.04-3.617 0 0 1.168-1.855 1.461-2.605 1.053-2.7-.292-3.804-2.258-3.804l-2.54 2.985-2.538-2.985c-1.967 0-3.312 1.104-2.258 3.804.292.75 1.461 2.605 1.461 2.605-.443 2.318-2.46 3.4-4.04 3.617.204-.311.418-.665.507-.906.702-1.883-.194-2.762-1.507-2.762l-1.695 1.537-1.696-1.536c-1.312 0-2.208.878-1.506 2.762.195.523.975 1.58.975 1.58zm21.304 29.023l-.131 2.367-8.994 4.297-8.658-3.922-.294-2.733c-3.152.47-2.82 5.257 1.377 5.257 2.798.7 4.86 3.85 5.632 5.964-3.796.92-8.563 3.452-9.527 6.216-.371 1.067.855 2.522 2.345 2.815a.1.1 0 00.096-.03l.009-.012a.094.094 0 00.008-.014l.004-.01.003-.012c.779-4.127 5.216-7.202 7.525-7.724l.073.196.122.324c-2.516 1.19-4.954 3.698-5.65 6.68-.32 1.366 1.203 2.597 2.46 2.934a.101.101 0 00.129-.088c.239-3.772 1.904-6.975 3.396-8.432.041.285.072.572.092.859 0 0-1.528 4.256-1.528 7.361 0 1.445 2.148 2.454 2.465 2.595.396-.141 2.542-1.15 2.542-2.595 0-3.105-1.527-7.362-1.527-7.362.02-.287.052-.573.093-.858 1.491 1.458 3.157 4.66 3.395 8.43a.102.102 0 00.129.09c1.259-.337 2.78-1.568 2.462-2.934-.698-2.982-3.135-5.49-5.65-6.68l.083-.224.11-.296c2.31.522 6.746 3.597 7.525 7.724a.102.102 0 00.12.077c1.489-.292 2.717-1.748 2.344-2.815-.962-2.764-5.73-5.296-9.527-6.215.774-2.114 4.625-5.32 5.635-5.964 4.895 0 4.5-4.83 1.312-5.266z" fill="#BDAF98"/></symbol><symbol fill="none" viewBox="0 0 153 54" id="f-app-store" xmlns="http://www.w3.org/2000/svg"><path d="M22.203 27.054c-.042-3.86 3.234-5.737 3.387-5.832-1.853-2.646-4.728-2.997-5.738-3.024-2.419-.243-4.755 1.404-5.985 1.404-1.258 0-3.152-1.39-5.184-1.35-2.627.04-5.088 1.526-6.428 3.834-2.78 4.698-.705 11.61 1.963 15.404 1.327 1.863 2.889 3.942 4.92 3.86 1.992-.08 2.738-1.241 5.143-1.241 2.378 0 3.083 1.242 5.157 1.201 2.143-.04 3.483-1.863 4.77-3.753 1.534-2.133 2.156-4.239 2.183-4.347-.041 0-4.147-1.525-4.188-6.156zM18.276 15.7c1.079-1.309 1.811-3.091 1.604-4.9-1.548.067-3.497 1.053-4.617 2.335-.996 1.135-1.867 2.984-1.645 4.725 1.742.108 3.539-.877 4.658-2.16zm27.842 21.142H39.58l-1.576 4.536h-2.765l6.193-16.767h2.875l6.194 16.767h-2.82l-1.563-4.536zm-5.861-2.093h5.184l-2.558-7.357h-.069l-2.557 7.357zm23.639.513c0 3.794-2.087 6.237-5.226 6.237-1.783 0-3.193-.783-3.94-2.133h-.055v6.048h-2.571V29.147h2.488v2.038h.042c.719-1.31 2.24-2.16 3.981-2.16 3.18 0 5.28 2.444 5.28 6.237zm-2.64 0c0-2.47-1.314-4.104-3.304-4.104-1.963 0-3.29 1.66-3.29 4.104 0 2.457 1.327 4.118 3.29 4.118 1.99 0 3.303-1.62 3.303-4.118zm16.409 0c0 3.794-2.088 6.237-5.226 6.237-1.783 0-3.193-.783-3.94-2.133h-.055v6.048h-2.557V29.147h2.488v2.038h.041c.72-1.31 2.24-2.16 3.982-2.16 3.18 0 5.267 2.444 5.267 6.237zm-2.64 0c0-2.47-1.314-4.104-3.305-4.104-1.963 0-3.29 1.66-3.29 4.104 0 2.457 1.327 4.118 3.29 4.118 2.005 0 3.304-1.62 3.304-4.118zm11.75 1.445c.193 1.66 1.838 2.754 4.105 2.754 2.17 0 3.719-1.094 3.719-2.592 0-1.296-.94-2.08-3.166-2.62l-2.226-.526c-3.151-.742-4.617-2.187-4.617-4.522 0-2.89 2.585-4.874 6.249-4.874 3.622 0 6.11 1.985 6.193 4.874h-2.599c-.152-1.674-1.576-2.687-3.636-2.687s-3.483 1.026-3.483 2.511c0 1.188.898 1.877 3.11 2.417l1.894.459c3.525.81 4.99 2.2 4.99 4.644 0 3.132-2.557 5.103-6.621 5.103-3.802 0-6.373-1.917-6.54-4.955h2.627v.014zm16.091-10.449v2.889h2.378v1.984h-2.378v6.737c0 1.053.47 1.539 1.521 1.539.262 0 .677-.04.843-.054v1.97c-.29.068-.857.122-1.424.122-2.53 0-3.525-.931-3.525-3.294v-7.006h-1.825V29.16h1.825v-2.902h2.585zm3.746 9.004c0-3.848 2.323-6.264 5.931-6.264 3.622 0 5.93 2.416 5.93 6.264 0 3.861-2.294 6.264-5.93 6.264-3.622 0-5.931-2.403-5.931-6.264zm9.262 0c0-2.633-1.244-4.198-3.317-4.198-2.074 0-3.318 1.566-3.318 4.198 0 2.646 1.244 4.199 3.318 4.199 2.073 0 3.317-1.553 3.317-4.199zm4.742-6.115h2.447v2.079h.055c.387-1.377 1.535-2.214 3.014-2.214.373 0 .677.054.885.094v2.35c-.208-.082-.65-.15-1.148-.15-1.659 0-2.682 1.094-2.682 2.809v7.25h-2.571V29.146zm18.234 8.639c-.346 2.215-2.558 3.74-5.391 3.74-3.636 0-5.903-2.376-5.903-6.21s2.267-6.318 5.792-6.318c3.456 0 5.64 2.322 5.64 6.034v.865h-8.833v.148c0 2.093 1.341 3.456 3.373 3.456 1.424 0 2.543-.661 2.889-1.715h2.433zm-8.682-3.658h6.263c-.056-1.877-1.286-3.105-3.069-3.105-1.784.014-3.055 1.269-3.194 3.105zM38.432 15.39h1.106c.913 0 1.549-.527 1.549-1.283 0-.742-.567-1.228-1.549-1.228-.967 0-1.59.473-1.659 1.255h-1.216c.083-1.457 1.189-2.362 2.917-2.362 1.617 0 2.764.891 2.764 2.16 0 .891-.608 1.647-1.492 1.836v.095c1.064.107 1.838.823 1.838 1.944 0 1.377-1.34 2.389-3.083 2.389-1.797 0-3.027-.945-3.096-2.39h1.23c.07.77.802 1.27 1.866 1.27 1.065 0 1.77-.554 1.77-1.35 0-.797-.664-1.296-1.811-1.296h-1.134v-1.04zm5.654 2.93c0-1.094.83-1.728 2.309-1.81l1.687-.094v-.526c0-.648-.429-1-1.272-1-.691 0-1.162.244-1.3.676h-1.189c.125-1.04 1.134-1.715 2.544-1.715 1.562 0 2.447.756 2.447 2.039v4.158h-1.189v-.85h-.097c-.373.607-1.05.958-1.866.958-1.203-.014-2.074-.716-2.074-1.836zm3.996-.513v-.513l-1.521.094c-.857.054-1.244.338-1.244.878 0 .553.484.864 1.147.864.94 0 1.618-.567 1.618-1.323zm4.492-2.835v5.062h-1.23v-6.075h4.092v1.013h-2.862zm10.313 2.025c0 1.93-.995 3.145-2.572 3.145-.884 0-1.59-.378-1.921-1.026h-.097v2.943h-1.23v-8.1h1.189v1h.096c.374-.69 1.107-1.108 1.95-1.108 1.59.014 2.585 1.215 2.585 3.146zm-1.258 0c0-1.283-.622-2.066-1.66-2.066-1.036 0-1.686.797-1.686 2.066 0 1.269.65 2.065 1.673 2.065 1.05 0 1.673-.77 1.673-2.065zm2.889 5.224v-1.04c.097.014.29.027.401.027.58 0 .913-.229 1.12-.85l.097-.297-2.254-6.102h1.341l1.562 4.833h.097l1.548-4.833h1.3l-2.323 6.332c-.525 1.485-1.12 1.957-2.391 1.957-.083 0-.373-.014-.498-.027zm6.18-3.901h1.216c.125.54.636.81 1.355.81.816 0 1.327-.351 1.327-.905 0-.58-.456-.864-1.327-.864h-.926v-.931h.912c.747 0 1.12-.284 1.12-.783 0-.446-.36-.783-1.12-.783-.691 0-1.189.283-1.272.77h-1.189c.125-1.08 1.051-1.783 2.447-1.783 1.48 0 2.323.648 2.323 1.674 0 .608-.401 1.107-.982 1.242v.095c.802.189 1.217.688 1.217 1.363 0 1.161-1.01 1.917-2.544 1.917-1.34.014-2.447-.594-2.557-1.822zm6.898 1.727v-6.075h1.216v4.185h.097l2.875-4.185h1.217v6.075h-1.217V15.85h-.096l-2.876 4.198h-1.216zm12.11-5.075h-1.963v5.062h-1.23v-5.062h-1.964v-1.013h5.157v1.013zm6.607 3.428c-.276 1.094-1.272 1.756-2.695 1.756-1.784 0-2.876-1.188-2.876-3.132 0-1.944 1.12-3.173 2.876-3.173 1.728 0 2.778 1.161 2.778 3.065v.418H92v.068c.042 1.066.678 1.741 1.66 1.741.746 0 1.257-.256 1.478-.742h1.175zM92 16.444h3.138c-.027-.958-.622-1.58-1.534-1.58-.913 0-1.535.635-1.604 1.58zm9.525-2.485h2.806c1.217 0 1.936.607 1.936 1.553 0 .62-.443 1.174-1.051 1.282v.095c.802.094 1.327.661 1.327 1.404 0 1.066-.816 1.755-2.184 1.755h-2.834v-6.089zm1.216.931v1.58h1.217c.746 0 1.092-.284 1.092-.796 0-.473-.304-.784-.968-.784h-1.341zm0 2.457v1.782h1.452c.733 0 1.12-.31 1.12-.89 0-.608-.443-.892-1.272-.892h-1.3z" fill="#BEA57C"/></symbol><symbol fill="none" viewBox="0 0 20 20" id="f-ask-director" xmlns="http://www.w3.org/2000/svg"><path d="M5.119 15h-2.41a.693.693 0 01-.69-.694V3.711c0-.382.31-.694.69-.694H17.31c.379 0 .689.312.689.694v10.595c0 .382-.31.694-.689.694H7.874m0 .122l-2.755 3.47v-3.47" stroke="#A58A63" stroke-width="1.5" stroke-miterlimit="10" stroke-linecap="round" stroke-linejoin="round"/><path d="M10 10.02V9.008M8.278 7.273c0-.957.772-1.734 1.722-1.734s1.722.777 1.722 1.734c0 .958-.771 1.735-1.722 1.735" stroke="#8D3332" stroke-miterlimit="10" stroke-linecap="round" stroke-linejoin="round"/><circle cx="10.01" cy="12.009" r=".75" fill="#8D3332"/></symbol><symbol fill="none" viewBox="0 0 20 20" id="f-doc-nalog" xmlns="http://www.w3.org/2000/svg"><path d="M12.599 9.675c0 .666-.199 1.185-.596 1.558-.397.372-.947.559-1.65.559H9.035v.641h1.54c.091 0 .137.043.137.128v.532c0 .091-.046.137-.137.137h-1.54v.633c0 .091-.042.137-.128.137h-.788c-.092 0-.137-.046-.137-.137v-.633H7.44c-.092 0-.138-.046-.138-.137v-.532c0-.085.046-.128.138-.128h.54V7.585c0-.091.046-.137.138-.137h2.236c.702 0 1.252.199 1.65.596.396.39.595.934.595 1.63zm-1.393.87c.214-.201.32-.51.32-.925 0-.416-.106-.721-.32-.917-.208-.195-.534-.293-.98-.293H9.034v2.428h1.192c.446 0 .772-.097.98-.293z" fill="#8D3332"/><circle cx="9.5" cy="10.5" r="8.5" stroke="#A58A63" stroke-width="1.5" stroke-miterlimit="10" stroke-linecap="round" stroke-linejoin="round"/></symbol><symbol fill="none" viewBox="0 0 150 55" id="f-g-play" xmlns="http://www.w3.org/2000/svg"><path d="M69.606 30.578c-2.783 0-5.057 2.187-5.057 5.192 0 2.993 2.274 5.192 5.057 5.192 2.784 0 5.058-2.199 5.058-5.192 0-3.005-2.274-5.192-5.058-5.192zm0 8.344c-1.528 0-2.842-1.295-2.842-3.152 0-1.869 1.314-3.152 2.842-3.152s2.843 1.283 2.843 3.152c0 1.857-1.327 3.152-2.843 3.152zm-11.038-8.344c-2.784 0-5.058 2.187-5.058 5.192 0 2.993 2.274 5.192 5.058 5.192 2.783 0 5.057-2.199 5.057-5.192 0-3.005-2.274-5.192-5.057-5.192zm0 8.344c-1.528 0-2.843-1.295-2.843-3.152 0-1.869 1.315-3.152 2.843-3.152s2.842 1.283 2.842 3.152c0 1.857-1.314 3.152-2.842 3.152zM45.444 32.18v2.199h5.117c-.154 1.233-.557 2.15-1.16 2.773-.747.77-1.908 1.612-3.945 1.612-3.15 0-5.614-2.614-5.614-5.864s2.464-5.864 5.614-5.864c1.694 0 2.938.685 3.85 1.576l1.504-1.551c-1.28-1.258-2.973-2.224-5.366-2.224-4.31 0-7.935 3.617-7.935 8.076 0 4.447 3.624 8.075 7.935 8.075 2.334 0 4.087-.782 5.46-2.26 1.41-1.454 1.848-3.506 1.848-5.156 0-.513-.035-.99-.118-1.38h-7.19v-.012zm53.666 1.71c-.415-1.16-1.694-3.31-4.311-3.31-2.594 0-4.75 2.1-4.75 5.191 0 2.908 2.132 5.192 4.998 5.192 2.31 0 3.648-1.453 4.193-2.296l-1.717-1.185c-.569.867-1.35 1.441-2.476 1.441-1.125 0-1.93-.537-2.44-1.576l6.74-2.87-.237-.587zm-6.87 1.735c-.059-2.004 1.505-3.03 2.63-3.03.876 0 1.622.452 1.871 1.1l-4.5 1.93zm-5.472 5.033h2.215v-15.27h-2.215v15.27zm-3.624-8.918h-.083c-.497-.611-1.445-1.16-2.653-1.16-2.523 0-4.832 2.284-4.832 5.216 0 2.907 2.31 5.18 4.832 5.18 1.196 0 2.156-.55 2.653-1.185h.071v.745c0 1.991-1.03 3.054-2.688 3.054-1.35 0-2.192-1.002-2.535-1.845l-1.93.831c.556 1.38 2.025 3.066 4.465 3.066 2.593 0 4.785-1.576 4.785-5.412v-9.333h-2.097v.843h.012zm-2.546 7.183c-1.528 0-2.808-1.32-2.808-3.127 0-1.833 1.28-3.164 2.808-3.164 1.504 0 2.688 1.343 2.688 3.164.012 1.808-1.172 3.127-2.688 3.127zm28.887-13.536h-5.294v15.271h2.215v-5.79h3.091c2.452 0 4.856-1.833 4.856-4.74 0-2.908-2.428-4.74-4.868-4.74zm.048 7.355h-3.139V27.5h3.139c1.658 0 2.594 1.417 2.594 2.614 0 1.197-.936 2.627-2.594 2.627zm13.668-2.187c-1.599 0-3.257.733-3.944 2.333l1.966.843c.414-.843 1.196-1.124 2.013-1.124 1.149 0 2.31.709 2.322 1.967v.159c-.403-.232-1.256-.587-2.31-.587-2.12 0-4.264 1.198-4.264 3.433 0 2.04 1.729 3.36 3.672 3.36 1.48 0 2.31-.684 2.819-1.49h.071v1.184h2.132v-5.851c.012-2.712-1.954-4.227-4.477-4.227zm-.273 8.368c-.722 0-1.729-.378-1.729-1.295 0-1.172 1.256-1.625 2.345-1.625.971 0 1.433.22 2.014.514-.166 1.404-1.35 2.406-2.63 2.406zm12.531-8.038l-2.534 6.621h-.071l-2.63-6.621h-2.38l3.944 9.26-2.251 5.143h2.31l6.076-14.403h-2.464zm-19.898 9.773h2.215v-15.27h-2.215v15.27z" fill="#BEA57C"/><path fill-rule="evenodd" clip-rule="evenodd" d="M1.648 42.943c-.547-.152-.904-.713-.904-1.58v-28.64c0-.804.302-1.346.78-1.543L15.17 27.14 1.65 42.944zm1.88-.61l16.425-9.6-4-4.68-12.425 14.28zm16.54-20.91l-16.196-9.47 12.106 14.25 4.09-4.78zm1.092.641l6.345 3.71c1.201.703 1.212 1.835 0 2.543L21 32.12l-4.243-4.994 4.403-5.062z" fill="#BEA57C"/><path d="M38.776 21.437H37.9v-2.455h.699c.616-.55.912-1.478.9-2.81v-3.616h4.75v6.426h.793v2.455h-.877v-1.551h-5.389v1.551zm1.647-5.253c.011 1.16-.214 2.09-.675 2.81h3.588V13.46h-2.913v2.724zm11.737 2.754c-.699.745-1.563 1.111-2.606 1.111-1.042 0-1.907-.366-2.605-1.111-.7-.746-1.043-1.65-1.043-2.713 0-1.062.344-1.979 1.043-2.712.698-.745 1.563-1.111 2.605-1.111 1.03 0 1.895.366 2.606 1.111.699.745 1.054 1.65 1.054 2.712 0 1.075-.355 1.98-1.054 2.712zm-4.536-.611c.52.55 1.172.818 1.93.818s1.41-.269 1.93-.818c.522-.55.794-1.246.794-2.102 0-.855-.26-1.551-.793-2.1a2.554 2.554 0 00-1.93-.832c-.759 0-1.41.27-1.931.819-.522.562-.782 1.258-.782 2.113 0 .856.26 1.552.782 2.102zm10.186 1.72c-1.042 0-1.919-.366-2.63-1.1-.71-.732-1.065-1.636-1.065-2.736 0-1.087.355-2.003 1.066-2.736.71-.733 1.587-1.1 2.63-1.1 1.065 0 1.941.403 2.605 1.197l-.64.636c-.485-.624-1.137-.929-1.978-.929-.77 0-1.433.269-1.966.806-.533.538-.793 1.246-.793 2.114 0 .867.26 1.576.793 2.113.533.538 1.184.807 1.966.807.853 0 1.575-.355 2.18-1.063l.64.66c-.32.403-.735.72-1.22.952-.486.27-1.02.38-1.588.38zm6.514-.161h-.912V13.46h-1.99v-.904h4.88v.904h-1.99v6.426h.012zm8.255-7.33l-2.69 6.182c-.366.867-.923 1.307-1.657 1.307-.213 0-.45-.05-.711-.16l.237-.867a.962.962 0 00.474.135c.213 0 .379-.037.497-.122.119-.086.225-.245.32-.464l.26-.587-2.392-5.424h1.078l1.753 4.202h.035l1.718-4.202h1.078zm1.029 7.33v-7.33h5.14v7.33h-.911V13.46H74.52v6.426h-.912zm6.766 0v-7.33h.912v3.14h3.553v-3.14h.912v7.33h-.912v-3.31h-3.553v3.31h-.912zm12.826-.948c-.698.745-1.563 1.111-2.605 1.111s-1.907-.366-2.605-1.111c-.7-.746-1.043-1.65-1.043-2.713 0-1.062.344-1.979 1.043-2.712.698-.745 1.563-1.111 2.605-1.111 1.03 0 1.895.366 2.606 1.111.699.745 1.054 1.65 1.054 2.712-.012 1.075-.355 1.98-1.054 2.712zm-4.535-.611c.52.55 1.172.818 1.93.818s1.41-.269 1.93-.818c.522-.55.794-1.246.794-2.102 0-.855-.26-1.551-.793-2.1-.533-.55-1.173-.832-1.93-.832-.759 0-1.41.27-1.931.819-.533.562-.794 1.258-.794 2.113 0 .856.26 1.552.794 2.102zm9.308 1.559v-7.33h2.57a2.09 2.09 0 011.445.562c.414.39.616.867.616 1.43 0 .354-.083.659-.261.915a1.613 1.613 0 01-.699.6v.036c.356.122.64.33.865.635a1.7 1.7 0 01.343 1.038c0 .599-.213 1.1-.639 1.49a2.103 2.103 0 01-1.528.624h-2.712zm.912-4.19h1.658c.343 0 .616-.123.829-.355a1.1 1.1 0 00.308-.77 1.1 1.1 0 00-.308-.769.999.999 0 00-.794-.354h-1.693v2.248zm0 3.286h1.835c.356 0 .64-.122.853-.379.213-.256.332-.525.332-.83a1.13 1.13 0 00-.344-.82 1.16 1.16 0 00-.888-.378h-1.8v2.407h.012z" fill="#BEA57C" stroke="#BEA57C" stroke-width=".2" stroke-miterlimit="10"/></symbol><symbol fill="none" viewBox="0 0 34 21" id="f-m-card" xmlns="http://www.w3.org/2000/svg"><path d="M12.407 2.178h9.215v16.74h-9.215V2.178z" fill="#fff"/><path d="M12.992 10.577c0-3.253 1.492-6.358 4.037-8.37A10.417 10.417 0 002.255 4.012C-1.315 8.655-.554 15.339 4.04 18.947a10.415 10.415 0 0013.018 0c-2.603-2.04-4.095-5.116-4.066-8.37z" fill="#fff" stroke="#C0AF95" stroke-miterlimit="10"/><path d="M34.027 10.577c0 5.886-4.71 10.647-10.532 10.647-2.37 0-4.652-.798-6.495-2.277 4.564-3.638 5.354-10.351 1.785-14.965A10.358 10.358 0 0017 2.178c4.564-3.638 11.205-2.84 14.803 1.804a10.85 10.85 0 012.224 6.595z" fill="#fff" stroke="#C0AF95" stroke-miterlimit="10"/></symbol><symbol fill="none" viewBox="0 0 65 18" id="f-mir" xmlns="http://www.w3.org/2000/svg"><path fill-rule="evenodd" clip-rule="evenodd" d="M5.95-.058c.583-.004 2.316-.159 3.05 2.3a917.72 917.72 0 012.363 8.143h.44c1.16-3.976 1.955-6.69 2.389-8.142.741-2.485 2.596-2.301 3.337-2.301h5.722v17.672H17.42V7.2h-.391l-3.251 10.415H9.389L6.138 7.191h-.391v10.422H-.085V-.058H5.95zm25.676 0v10.422h.465l3.955-8.57C36.814.088 38.45-.058 38.45-.058h5.644v17.672H38.14V7.192h-.465l-3.878 8.57c-.767 1.698-2.481 1.852-2.481 1.852h-5.644V-.058h5.954zM64.673 8.34c-.83 2.337-3.438 4.01-6.326 4.01h-6.244v5.264h-5.662V8.34h18.232zM58.62-.058H46.145c.296 3.934 3.71 7.303 7.242 7.303h11.68c.674-3.27-1.646-7.303-6.447-7.303z" fill="#fff"/></symbol><symbol fill="none" viewBox="0 0 56 18" id="f-visa" xmlns="http://www.w3.org/2000/svg"><path d="M36.466.028c-3.972 0-7.522 2.038-7.522 5.804 0 4.319 6.296 4.617 6.296 6.786 0 .914-1.058 1.732-2.864 1.732-2.563 0-4.479-1.143-4.479-1.143l-.82 3.8s2.207.965 5.137.965c4.343 0 7.76-2.138 7.76-5.968 0-4.564-6.321-4.853-6.321-6.867 0-.715.868-1.5 2.669-1.5 2.032 0 3.69.832 3.69.832l.802-3.67S39.01.027 36.466.027zM.124.305L.028.859s1.671.303 3.176.907c1.938.692 2.076 1.095 2.402 2.348l3.557 13.573h4.768L21.276.305h-4.757l-4.72 11.818L9.874 2.105C9.697.96 8.802.305 7.707.305H.124zm23.065 0l-3.732 17.382h4.536L27.71.305h-4.52zm25.298 0c-1.094 0-1.673.58-2.099 1.593l-6.645 15.789H44.5l.92-2.632h5.795l.56 2.632h4.197L52.31.305h-3.823zM49.106 5l1.41 6.522h-3.778L49.106 5z" fill="#fff"/></symbol><symbol fill="none" viewBox="0 0 28 28" id="file" xmlns="http://www.w3.org/2000/svg"><path d="M9.667 14.665h8a.66.66 0 00.666-.666.66.66 0 00-.666-.667h-8a.66.66 0 00-.667.667.66.66 0 00.667.666zm0 3.668h8a.66.66 0 00.666-.666.66.66 0 00-.666-.667h-8a.66.66 0 00-.667.667.66.66 0 00.667.666zm0 3.668h8a.66.66 0 00.666-.666.66.66 0 00-.666-.667h-8a.66.66 0 00-.667.667.66.66 0 00.667.666z" fill="#BDA47F"/><path d="M22.147 8.855l-4-4a.643.643 0 00-.48-.187H9.533v1.333H17v3.334a.66.66 0 00.667.666H21v14.667H6.333V6.001h.8V4.668H5.667A.66.66 0 005 5.335v20a.66.66 0 00.667.666h16a.66.66 0 00.666-.666v-16c0-.16-.08-.347-.186-.48zm-3.814-.187V6.935l1.734 1.733h-1.734z" fill="#BDA47F"/><path d="M11 7.333a.66.66 0 00-.666.667v1.667a.66.66 0 01-.667.666A.66.66 0 019 9.667V4.533h.027c.053-.666.613-1.2 1.307-1.2.293 0 .56.107.773.267.213.16.373.373.453.64h1.387c-.027-.213-.107-.427-.187-.64-.426-.933-1.36-1.6-2.426-1.6a2.681 2.681 0 00-2.667 2.613v5.054c0 1.093.907 2 2 2s2-.907 2-2V8A.66.66 0 0011 7.333z" fill="#8D3332"/></symbol><symbol fill="none" viewBox="0 0 32 32" id="h-burger" xmlns="http://www.w3.org/2000/svg"><path stroke="#8D3332" stroke-linecap="round" d="M1.5 7.5h29m-29 8h29m-29 8h29"/></symbol><symbol fill="none" viewBox="0 0 32 32" id="h-burger-x" xmlns="http://www.w3.org/2000/svg"><path stroke="#8D3332" stroke-linecap="round" d="M6 25.506L26.506 5m-20.405.393l20.506 20.506"/></symbol><symbol fill="none" viewBox="0 0 32 32" id="h-lk" xmlns="http://www.w3.org/2000/svg"><circle cx="15.499" cy="12.5" r="3.95" stroke="#8D3332" stroke-width="1.1"/><path d="M8 24c.313-1.667 2.25-5 7.5-5s7.188 3.333 7.5 5" stroke="#8D3332" stroke-width="1.1"/></symbol><symbol fill="none" viewBox="0 0 205 67" id="h-logo" xmlns="http://www.w3.org/2000/svg"><path d="M49.53 9.483l1.303 1.735 1.71.406-.849.778 1.326 1.854-1.938-1.328-1.031.814-.25-1.723-1.96-1.423 1.836.37-.147-1.483zm7.601 10.121l1.553 2.081 1.632.12-.59 1.304 1.62 2.249-2.05-1.352-.748 1.424-.612-2.357-2.108-1.471 1.756.035-.453-2.033zM59.15 32.81l2.051 2.979 1.96-.395-.577 2.452 2.153 3.29-2.607-1.555-.827 2.835-.93-3.935-2.719-1.771 2.187-.598-.69-3.302zM19.804 2.161l1.235 2.44 3.75.874-2.957.79 1.19 2.655-3.366-2.117-3.716.873 1.495-2.309-3.376-2.249 4.34.898 1.405-1.855zm28.502 44.837l2.64 4.845 3.388-1.46-1.597 4.858 2.833 5.562-4.08-1.973-2.3 6.244-.465-7.656-4.283-2.405 4.08-2.033-.216-5.982zM9.983 15.5l1.394 3.864 5.71.37-4.826 2.346 1.314 4.402-4.997-2.68-6.607 2.955 3.275-4.833-5.11-3.015 7.082.252L9.983 15.5zM21.62 39.378l2.119 5.539 5.87-1.28-4.454 5.228 2.165 6.531-5.678-2.56-6.527 7.166 2.697-9.008-5.926-3.074 7.513-1.974 2.22-6.568zM36.305 2.257l1.212 1.807 2.3.67-1.506.562 1.2 1.926-2.288-1.555-1.847.574.317-1.627-2.312-1.663 2.539.682.385-1.376zm117.839 32.395c-7.073 0-12.955-5.579-12.955-13.581 0-7.853 5.408-13.692 13.116-13.692 6.599 0 9.979 4.277 11.129 5.93l3.864-3.837c-1.079-1.492-2.341-2.694-3.915-3.806-1.977-1.392-5.619-3.455-11.088-3.455-4.056 0-9.423 1.031-13.731 5.528-3.592 3.716-5.207 8.524-5.207 13.332 0 4.807 1.514 9.505 5.519 13.481 3.118 3.105 7.285 5.268 13.117 5.268 7.647 0 11.764-4.136 13.681-6.82.101-.13.171-.27.262-.411l-3.955-3.926c-1.766 3.585-5.317 5.99-9.837 5.99zM94.123 8.1H79.654v8.685h7.285v5.158h-7.285v11.989h14.469V39.1H74.035V2.933h20.088V8.1zm1.697 31l7.284-36.939 13.005 25.21 13.167-25.21 6.507 36.939h-5.73l-3.643-21.073-10.614 21.844-10.452-21.895L101.54 39.1h-5.72zM78.524 52.972c0 .861-.182 1.412-.626 1.893a2.59 2.59 0 01-1.947.841c-.726 0-1.392-.27-1.887-.761-.696-.691-.696-1.522-.696-2.955 0-1.402 0-2.273.696-2.964.505-.511 1.15-.762 1.907-.762.979 0 1.504.351 2.19.992l-.525.52c-.484-.48-.908-.82-1.645-.82-.504 0-.968.18-1.301.52-.535.541-.515 1.423-.515 2.494v.27c0 1.353.101 1.824.515 2.234.333.33.787.511 1.271.511.545 0 1.06-.22 1.382-.62.293-.342.404-.742.404-1.343v-.55h-1.796v-.692h2.573v1.192zm4.196-1.262c.918 0 1.473-.49 1.473-1.332 0-.841-.545-1.342-1.473-1.342h-1.967v2.684h1.967v-.01zm1.483 3.936l-1.685-3.245h-1.765v3.245h-.787v-7.321h2.825c1.312 0 2.19.801 2.19 2.033 0 .671-.253 1.202-.727 1.572-.242.19-.424.27-.888.391l1.755 3.315h-.918v.01zm5.793-6.16a1.793 1.793 0 00-1.272-.52c-.474 0-.938.18-1.271.52-.565.551-.515 1.383-.515 2.494 0 .982-.06 1.923.515 2.494.343.34.787.531 1.271.531.484 0 .928-.18 1.272-.53.575-.572.514-1.523.514-2.495 0-1.011.05-1.933-.514-2.494zm.615 5.459a2.63 2.63 0 01-1.887.761 2.63 2.63 0 01-1.886-.761c-.676-.671-.697-1.502-.697-2.955 0-1.041-.07-2.203.697-2.964a2.647 2.647 0 011.886-.762c.727 0 1.382.27 1.887.762.767.76.696 1.923.696 2.964-.01 1.463-.02 2.284-.696 2.955zm7.272-1.712c0 1.452-1.08 2.484-2.582 2.484-1.504 0-2.563-1.032-2.563-2.484v-4.898h.787v4.838c0 1.111.706 1.843 1.775 1.843 1.08 0 1.786-.732 1.786-1.843v-4.838h.787v4.898m4.38-1.293c.979 0 1.564-.55 1.564-1.462 0-.911-.585-1.452-1.564-1.452h-1.887v2.904h1.887v.01zm.081-3.615c1.362 0 2.28.861 2.28 2.153s-.908 2.164-2.28 2.164h-1.958v3.014h-.787v-7.321h2.745v-.01zm8.898 1.161a1.793 1.793 0 00-1.271-.52c-.475 0-.929.18-1.272.52-.565.551-.524 1.382-.524 2.494 0 .982-.061 1.923.524 2.494.343.34.787.53 1.272.53.484 0 .928-.18 1.271-.53.575-.57.514-1.522.514-2.494.01-1.011.051-1.933-.514-2.494zm.615 5.459c-.494.49-1.15.761-1.886.761a2.63 2.63 0 01-1.887-.761c-.676-.671-.696-1.503-.696-2.955 0-1.042-.071-2.203.696-2.965a2.646 2.646 0 011.887-.76c.726 0 1.392.27 1.886.76.767.762.696 1.923.696 2.965 0 1.462-.02 2.284-.696 2.955zm3.02-5.919v2.694h3.228v.701h-3.228v3.225h-.787v-7.321h4.58v.7h-3.793zm9.099 6.68c-.746 0-1.412-.27-1.907-.76-.736-.742-.696-1.774-.696-2.965 0-1.403-.02-2.254.696-2.965.495-.5 1.161-.761 1.897-.761.898 0 1.403.31 2.058.891l-.524.52c-.454-.44-.858-.71-1.524-.71-.504 0-.958.18-1.291.51-.495.511-.515 1.323-.515 2.515v.28c0 1.342.101 1.823.515 2.233.333.341.777.511 1.291.511.666 0 1.07-.28 1.524-.71l.524.52c-.645.571-1.16.892-2.048.892zm6.832-6.22a1.793 1.793 0 00-1.271-.52c-.474 0-.928.18-1.271.52-.555.551-.515 1.382-.515 2.494 0 .982-.06 1.923.515 2.494.343.34.787.53 1.271.53.494 0 .938-.18 1.271-.53.575-.57.515-1.522.515-2.494.01-1.011.05-1.933-.515-2.494zm.616 5.459a2.633 2.633 0 01-1.887.761c-.737 0-1.382-.27-1.887-.761-.676-.671-.696-1.503-.696-2.955 0-1.042-.071-2.203.696-2.965a2.65 2.65 0 011.887-.76c.726 0 1.392.27 1.887.76.766.762.696 1.923.696 2.965 0 1.462-.02 2.284-.696 2.955zm7.758.701v-5.559l-2.018 4.407h-.666l-2.058-4.407v5.56h-.787v-7.322h.787l2.401 5.188 2.341-5.188h.787v7.321h-.787zm5.238-3.706c.978 0 1.563-.55 1.563-1.462 0-.911-.585-1.452-1.563-1.452h-1.887v2.904h1.887v.01zm.07-3.615c1.362 0 2.28.861 2.28 2.153s-.908 2.164-2.28 2.164h-1.957v3.014h-.787v-7.321h2.744v-.01zm5.223 1.122l-1.393 3.866h2.755l-1.362-3.867zm2.179 6.2l-.585-1.663h-3.219l-.595 1.662h-.837l2.714-7.321h.665l2.704 7.321h-.847zm6.559-.001l-3.915-5.869v5.87h-.787v-7.322h.747l3.904 5.849v-5.85h.797v7.322h-.746zm3.281-7.321h-.787v7.321h.787v-7.321zm1.753 7.321v-7.321h4.581v.7h-3.794v2.585h3.229v.691h-3.229v2.644h3.794v.701h-4.581zm8.952-6.541a2.65 2.65 0 00-.948-.16c-.999 0-1.594.501-1.594 1.372 0 .691.434 1.102 1.321 1.232l.808.12c.676.1 1.029.23 1.341.511.414.35.626.842.626 1.453 0 1.292-.999 2.073-2.643 2.073-.505 0-.999-.09-1.403-.26-.383-.15-.585-.3-1.039-.712l.535-.53c.383.36.555.47.877.6.313.12.676.2 1.09.2 1.13 0 1.786-.5 1.786-1.371 0-.38-.111-.691-.353-.902-.222-.19-.404-.27-.969-.35l-.857-.13c-1.272-.2-1.917-.842-1.917-1.913 0-1.293.908-2.074 2.421-2.074.424 0 .838.07 1.181.2.343.13.534.25.948.601l-.504.501c-.293-.26-.434-.35-.707-.46zM73.652 65.933V58.61h4.58v.701H74.44v2.585h3.228v.69H74.44v2.645h3.793v.7h-4.58zm10.915-2.413c0 1.451-1.08 2.483-2.583 2.483-1.504 0-2.563-1.032-2.563-2.484v-4.908h.787v4.838c0 1.112.706 1.843 1.776 1.843 1.08 0 1.796-.731 1.796-1.843v-4.838h.787v4.908zm4.461-1.523c.918 0 1.473-.491 1.473-1.332 0-.842-.555-1.353-1.473-1.353h-1.967v2.685h1.967zm1.483 3.936l-1.675-3.245h-1.765v3.245h-.787V58.61h2.825c1.311 0 2.19.802 2.19 2.034 0 .67-.253 1.201-.727 1.572-.243.18-.424.26-.878.39l1.745 3.316h-.928v.01zm5.801-6.16a1.792 1.792 0 00-1.271-.521c-.474 0-.938.18-1.271.52-.565.561-.525 1.383-.525 2.494 0 .972-.06 1.923.525 2.494a1.785 1.785 0 002.542 0c.585-.58.515-1.522.515-2.494 0-1.011.04-1.933-.515-2.493zm.606 5.458a2.63 2.63 0 01-1.887.761 2.63 2.63 0 01-1.887-.76c-.676-.672-.696-1.503-.696-2.966 0-1.041-.07-2.203.696-2.964a2.647 2.647 0 011.887-.761c.726 0 1.392.26 1.887.76.766.762.696 1.924.696 2.965 0 1.473-.02 2.294-.696 2.965zm4.891-3.004c.979 0 1.564-.54 1.564-1.462 0-.922-.575-1.453-1.564-1.453h-1.887v2.915h1.887zm.071-3.616c1.362 0 2.28.862 2.28 2.154 0 1.292-.918 2.153-2.28 2.153h-1.958v3.015h-.787V58.61h2.745zm3.463 7.322V58.61h4.581v.701h-3.784v2.585h3.229v.69h-3.229v2.645h3.784v.7h-4.581zm8.361-6.2l-1.393 3.866h2.755l-1.362-3.866zm2.189 6.2l-.595-1.653h-3.219l-.595 1.653h-.838l2.715-7.322h.665l2.704 7.322h-.837zm6.56 0l-3.915-5.87v5.87h-.787V58.61h.747l3.915 5.85v-5.85h.787v7.322h-.747zm9.958 0v-5.56l-2.018 4.408h-.676l-2.048-4.407v5.559h-.787V58.61h.787l2.401 5.188 2.341-5.188h.787v7.322h-.787zm2.553 0V58.61h4.57v.701h-3.783v2.584h3.228v.691h-3.228v2.645h3.783v.7h-4.57zm8.212-.701c.615 0 1.13-.18 1.453-.531.333-.36.484-.961.484-1.953v-.551c0-1.442-.101-1.933-.484-2.344-.333-.35-.828-.53-1.453-.53h-1.605v5.919h1.605v-.01zm.131-6.62c.767 0 1.412.24 1.866.68.606.601.727 1.483.727 2.284v.591c0 1.032.05 2.294-.727 3.085-.433.44-1.099.68-1.866.68h-2.533v-7.32h2.533zm4.913-.001h-.787v7.322h.787V58.61zm4.136 7.381c-.746 0-1.412-.27-1.907-.76-.736-.742-.696-1.784-.696-2.966 0-1.402-.02-2.253.696-2.964a2.656 2.656 0 011.897-.761c.898 0 1.413.31 2.059.89l-.525.532c-.454-.44-.858-.721-1.524-.721-.504 0-.958.18-1.291.51-.494.501-.515 1.313-.515 2.504v.28c0 1.353.101 1.824.515 2.234.333.341.777.511 1.291.511.666 0 1.07-.28 1.524-.72l.525.52c-.646.59-1.161.911-2.049.911zm5.775-6.259l-1.392 3.866h2.754l-1.362-3.866zm2.179 6.2l-.595-1.653h-3.218l-.596 1.653h-.837l2.714-7.322h.656l2.704 7.322h-.828zm1.844 0V58.61h.787v6.62h3.774v.702h-4.561zm9.819.059c-.747 0-1.413-.27-1.907-.76-.737-.742-.696-1.784-.696-2.966 0-1.402-.021-2.253.696-2.964a2.653 2.653 0 011.897-.761c.897 0 1.402.31 2.058.89l-.525.532c-.454-.44-.858-.721-1.523-.721-.505 0-.969.18-1.302.51-.494.501-.514 1.313-.514 2.504v.28c0 1.353.1 1.824.514 2.234.333.341.777.511 1.302.511.655 0 1.069-.28 1.523-.72l.525.52c-.636.59-1.161.911-2.048.911zm3.339-.059V58.61h4.571v.701h-3.784v2.585h3.229v.69h-3.229v2.645h3.784v.7h-4.571zm10.523 0l-3.914-5.87v5.87h-.787V58.61h.746l3.915 5.85v-5.85h.787v7.322h-.747zm4.76-6.621v6.62h-.777v-6.62h-2.139v-.7h5.054v.7h-2.138zm3.25 6.621V58.61h4.581v.701h-3.794v2.585h3.229v.69h-3.229v2.645h3.794v.7h-4.581zm8.576-3.937c.919 0 1.473-.49 1.473-1.332 0-.841-.554-1.352-1.473-1.352h-1.967v2.684h1.967zm1.484 3.937l-1.675-3.245h-1.776v3.245h-.787V58.61h2.825c1.312 0 2.189.801 2.189 2.033 0 .671-.252 1.202-.726 1.573-.242.18-.424.26-.878.39l1.746 3.316h-.918v.01z" fill="#BDA47F"/></symbol><symbol fill="none" viewBox="0 0 32 32" id="h-phone" xmlns="http://www.w3.org/2000/svg"><path d="M10.776 8.601L8.292 10.71l-.014.014c-1.074 1.075 1.054 4.953 4.81 8.706 3.757 3.756 7.715 5.972 8.79 4.897l.014-.014 2.108-2.5-3.826-3.128-2.435 1.74-5.565-5.566 1.739-2.434L10.776 8.6z" fill="#8D3332"/></symbol><symbol fill="none" viewBox="0 0 32 32" id="h-search" xmlns="http://www.w3.org/2000/svg"><path d="M21 14.5c0-3.591-2.909-6.5-6.5-6.5A6.498 6.498 0 008 14.5c0 3.591 2.909 6.5 6.5 6.5s6.5-2.909 6.5-6.5zM20 20l4 4" stroke="#8D3332" stroke-width="1.1" stroke-miterlimit="10" stroke-linecap="round" stroke-linejoin="round"/></symbol><symbol viewBox="0 0 734 740" fill="none" id="h-wa" xmlns="http://www.w3.org/2000/svg"><path d="M373.609 57.573c-167.034 0-302.903 135.87-302.903 302.903 0 66.244 21.37 127.678 57.695 177.542l-37.753 112.54 116.46-37.21c47.9 31.697 105.062 50.036 166.677 50.036 167.033 0 302.903-135.874 302.903-302.903 0-167.033-135.87-302.903-302.903-302.903h-.176v-.005z" fill="#6EBF63"/><path d="M289.022 211.434c-5.875-14.067-10.328-14.599-19.229-14.961a171.023 171.023 0 00-10.151-.352c-11.58 0-23.686 3.382-30.989 10.861-8.9 9.081-30.983 30.269-30.983 73.721 0 43.452 31.697 85.477 35.969 91.357 4.452 5.87 61.795 96.332 150.83 133.201 69.626 28.847 90.287 26.174 106.133 22.791 23.148-4.985 52.176-22.088 59.479-42.738 7.302-20.661 7.302-38.291 5.161-42.03-2.136-3.739-8.016-5.87-16.916-10.328-8.901-4.452-52.177-25.822-60.369-28.671-8.016-3.026-15.67-1.955-21.721 6.593-8.549 11.931-16.916 24.043-23.686 31.341-5.342 5.699-14.072 6.412-21.369 3.382-9.795-4.091-37.215-13.715-71.053-43.809-26.179-23.324-43.985-52.347-49.146-61.072-5.167-8.9-.533-14.072 3.558-18.876 4.453-5.524 8.725-9.439 13.177-14.605 4.453-5.161 6.946-7.835 9.795-13.891 3.031-5.875.89-11.931-1.246-16.384-2.136-4.453-19.942-47.905-27.244-65.53z" fill="#FEFEFE"/></symbol><symbol fill="none" viewBox="0 0 32 32" id="icon-bag" xmlns="http://www.w3.org/2000/svg"><path d="M26.787 8.641H5.201a.772.772 0 00-.768.768v17.38c0 .42.347.767.768.767h21.585c.42 0 .767-.347.767-.768V9.408a.772.772 0 00-.767-.767zm-6.591 9.463h-8.41m4.203 4.206v-8.412m-4.204-5.257V6.118c0-.925.757-1.682 1.682-1.682h5.047c.925 0 1.682.757 1.682 1.682v2.523" stroke="#373737" stroke-width="1.6" stroke-miterlimit="10" stroke-linecap="round" stroke-linejoin="round"/></symbol><symbol fill="none" viewBox="0 0 36 36" id="icon-list" xmlns="http://www.w3.org/2000/svg"><path d="M23.522 5.4H28.8v27H7.2v-27h5.265" stroke="#373737" stroke-width="1.6" stroke-miterlimit="10" stroke-linecap="round" stroke-linejoin="round"/><path d="M23.4 3.6v1.8c0 .996-.972 1.8-2.16 1.8h-6.48c-1.188 0-2.16-.804-2.16-1.8V3.6m0 0h10.8m0 9H18m5.4 5.4H18m5.4 5.4H18m-3.6-10.8h-1.8m1.8 5.4h-1.8m1.8 5.4h-1.8" stroke="#373737" stroke-width="1.6" stroke-miterlimit="10" stroke-linecap="round" stroke-linejoin="round"/></symbol><symbol fill="none" viewBox="0 0 36 36" id="main-competencies-1" xmlns="http://www.w3.org/2000/svg"><path d="M30.137 9.721H5.854a.868.868 0 00-.864.864v19.551c0 .474.39.864.864.864h24.283c.473 0 .863-.39.863-.863V10.585a.868.868 0 00-.863-.864z" stroke="#8D3332" stroke-miterlimit="10" stroke-linecap="round" stroke-linejoin="round"/><path d="M22.72 20.367h-9.462m4.732 4.731v-9.462" stroke="#BDA47F" stroke-miterlimit="10" stroke-linecap="round" stroke-linejoin="round"/><path d="M13.258 9.721V6.883c0-1.041.852-1.893 1.893-1.893h5.677c1.041 0 1.893.852 1.893 1.893V9.72" stroke="#8D3332" stroke-miterlimit="10" stroke-linecap="round" stroke-linejoin="round"/></symbol><symbol fill="none" viewBox="0 0 36 36" id="main-services-1" xmlns="http://www.w3.org/2000/svg"><path d="M23.624 5.625H29v27.5H7v-27.5h5.363" stroke="#8D3332" stroke-miterlimit="10" stroke-linecap="round" stroke-linejoin="round"/><path d="M23.5 2.875v2.063C23.5 6.077 22.51 7 21.3 7h-6.6c-1.21 0-2.2-.921-2.2-2.063V2.876m0-.001h11" stroke="#8D3332" stroke-miterlimit="10" stroke-linecap="round" stroke-linejoin="round"/><path d="M24.875 12.5h-8.25m-3.375 0H11m11.125 11V29m2.75-2.75h-5.5m5.5-9.625h-8.25m-3.375 0H11" stroke="#BDA47F" stroke-miterlimit="10" stroke-linecap="round" stroke-linejoin="round"/></symbol><symbol viewBox="0 0 12 20" id="main-services-arrow" xmlns="http://www.w3.org/2000/svg"><path d="M1 1l10 9-10 9"/></symbol><symbol fill="none" viewBox="0 0 20 20" id="main-services-mob-1" xmlns="http://www.w3.org/2000/svg"><path d="M13.068 3H16v15H4V3h2.925" stroke="#373737" stroke-miterlimit="10" stroke-linecap="round" stroke-linejoin="round"/><path d="M13 2v1c0 .553-.54 1-1.2 1H8.2C7.54 4 7 3.553 7 3V2m0 0h6m0 5h-3m3 3h-3m3 3h-3M8 7H7m1 3H7m1 3H7" stroke="#373737" stroke-miterlimit="10" stroke-linecap="round" stroke-linejoin="round"/></symbol><symbol fill="none" viewBox="0 0 20 20" id="main-services-mob-2" xmlns="http://www.w3.org/2000/svg"><path d="M16.742 5.4H3.25a.482.482 0 00-.48.48v10.863c0 .262.217.48.48.48h13.49c.263 0 .48-.218.48-.48V5.88a.482.482 0 00-.48-.48zm-4.12 5.915H7.365m2.628 2.628V8.686M7.365 5.4V3.825c0-.578.474-1.052 1.052-1.052h3.154c.578 0 1.051.474 1.051 1.052V5.4" stroke="#373737" stroke-miterlimit="10" stroke-linecap="round" stroke-linejoin="round"/></symbol><symbol fill="none" viewBox="0 0 20 20" id="main-services-mob-3" xmlns="http://www.w3.org/2000/svg"><path d="M2.963 13.082V3.574c0-.317.243-.574.537-.574h12.963c.294 0 .537.257.537.574v1.412m-8 8.096H1.667v1.64c0 .152.257.278.568.278H9" stroke="#373737" stroke-miterlimit="10" stroke-linecap="round" stroke-linejoin="round"/><path d="M18 16.713c0 .706-.683 1.287-1.507 1.287h-3.986C11.675 18 11 17.42 11 16.713V8.288C11 7.58 11.683 7 12.507 7h3.986C17.325 7 18 7.581 18 8.288v8.425zm-2.222-4.491H13m1.389 1.389v-2.778" stroke="#373737" stroke-miterlimit="10" stroke-linecap="round" stroke-linejoin="round"/></symbol><symbol fill="none" viewBox="0 0 19 17" id="map-car" xmlns="http://www.w3.org/2000/svg"><g clip-path="url(#bia)"><path fill-rule="evenodd" clip-rule="evenodd" d="M2.664 14.84v1.106c0 .348.282.629.629.629h.825a.628.628 0 00.629-.629v-.792c0-.174.14-.315.314-.315h9.089c.173 0 .314.141.314.315v.792c0 .348.282.629.629.629h.825a.628.628 0 00.629-.629V14.84l.333-.333a2.2 2.2 0 00.627-1.284l.252-2.032a2.2 2.2 0 00-.4-1.56l-.891-1.23a2.199 2.199 0 01-.28-.525l-1.334-3.593a.943.943 0 00-.883-.614H5.24a.943.943 0 00-.884.614L3.023 7.875a2.2 2.2 0 01-.28.524l-.89 1.231a2.2 2.2 0 00-.401 1.56l.252 2.032a2.2 2.2 0 00.627 1.284l.333.333zm6.941-6.684H4.848a.628.628 0 01-.598-.822l.818-2.515a.628.628 0 01.598-.434h7.879a.63.63 0 01.598.434l.817 2.515a.628.628 0 01-.597.822H9.605zm-8.226.498c.485 0 1.358-.734 1.358-1.22 0-.485-.873-.538-1.358-.538a.88.88 0 000 1.758zM4 11.814a1 1 0 100-2 1 1 0 000 2zm11 0a1 1 0 100-2 1 1 0 000 2zm2.821-3.232c-.485 0-1.358-.734-1.358-1.22 0-.485.873-.538 1.358-.538a.88.88 0 110 1.758z" fill="#8D3332"/></g><defs><clipPath id="bia"><path fill="#fff" transform="translate(0 .813)" d="M0 0h19v16H0z"/></clipPath></defs></symbol><symbol class="bjsvg-icon" fill="none" viewBox="0 0 8 17" id="map-pedestrian" xmlns="http://www.w3.org/2000/svg"><g clip-path="url(#bja)" fill="#8D3332"><path fill-rule="evenodd" clip-rule="evenodd" d="M4.858 6.422a.77.77 0 01-.327 1.04L2.173 8.688l-.672 2.015a.77.77 0 11-1.461-.487L.909 7.61l2.91-1.515a.77.77 0 011.04.327z"/><path fill-rule="evenodd" clip-rule="evenodd" d="M4.43 5.996c.59.09.995.639.906 1.228l-.534 3.533a1.079 1.079 0 01-2.132-.322L3.203 6.9a1.078 1.078 0 011.228-.905z"/><path fill-rule="evenodd" clip-rule="evenodd" d="M2.905 10.244a.77.77 0 011.088-.042l2.53 2.34.827 3.267a.77.77 0 11-1.494.378l-.715-2.824-2.194-2.03a.77.77 0 01-.042-1.09z"/><path d="M6.074 4.574a1.17 1.17 0 11-2.338 0 1.17 1.17 0 012.338 0z"/><path fill-rule="evenodd" clip-rule="evenodd" d="M5.296 7.343a.756.756 0 00-.709 1.299l.456.391.253-1.69zm.018 1.922l1.39 1.192a.756.756 0 00.985-1.148l-2.111-1.81-.264 1.766zm-.973 2.45a.77.77 0 10-1.4-.641l-.07.152 1.192 1.098.278-.609zm-.413.904L2.736 11.52.841 15.658a.77.77 0 101.4.641l1.687-3.68z"/></g><defs><clipPath id="bja"><path fill="#fff" transform="translate(0 .813)" d="M0 0h8v16H0z"/></clipPath></defs></symbol><symbol fill="none" viewBox="0 0 46 46" id="play" xmlns="http://www.w3.org/2000/svg"><ellipse cx="23" cy="22.948" rx="22.689" ry="22.948" fill="#8D3332"/><path d="M30.563 22.948l-10.891 7.65v-15.3l10.89 7.65z" fill="#fff"/></symbol><symbol fill="none" viewBox="0 0 14 14" id="request-call" xmlns="http://www.w3.org/2000/svg"><path d="M2.886.7L.93 2.36l-.01.011c-.847.846.83 3.9 3.788 6.856 2.958 2.958 6.075 4.703 6.921 3.857l.011-.011 1.66-1.97-3.013-2.462-1.917 1.37-4.383-4.383 1.37-1.918L2.887.7zm8.771 4.383h-2.74v-2.74m.001 2.74L13.301.7" stroke="#8D3332" stroke-miterlimit="10" stroke-linecap="round" stroke-linejoin="round"/></symbol><symbol viewBox="0 0 24 13" id="slider-arrow" xmlns="http://www.w3.org/2000/svg"><path d="M1 6.5h22m-6-6l6 6-6 6"/></symbol><symbol viewBox="0 0 14 13" id="star" xmlns="http://www.w3.org/2000/svg"><path d="M7 0l1.77 4.565 4.887.272L9.863 7.93l1.252 4.733L7 10.01l-4.114 2.653 1.25-4.733L.343 4.837l4.888-.272L7 0z"/></symbol><symbol viewBox="0 0 32 32" id="telegram" xmlns="http://www.w3.org/2000/svg"><path d="M16 .5C7.437.5.5 7.438.5 16S7.438 31.5 16 31.5c8.563 0 15.5-6.938 15.5-15.5S24.562.5 16 .5zm7.613 10.619l-2.544 11.988c-.188.85-.694 1.056-1.4.656l-3.875-2.856-1.869 1.8c-.206.206-.381.381-.781.381l.275-3.944 7.181-6.488c.313-.275-.069-.431-.482-.156l-8.875 5.587-3.825-1.194c-.831-.262-.85-.831.175-1.231l14.944-5.763c.694-.25 1.3.169 1.075 1.219z"/></symbol><symbol viewBox="0 0 24 24" id="vk" xmlns="http://www.w3.org/2000/svg"><path d="M12 0C5.373 0 0 5.373 0 12s5.373 12 12 12 12-5.373 12-12S18.627 0 12 0zm6.344 16.163h-1.867c-1.055 0-1.232-.601-2.102-1.469-.785-.785-1.22-.183-1.202.935.006.297-.141.534-.495.534-1.105 0-2.694.156-4.304-1.58C6.727 12.804 5 9.235 5 8.884c0-.208.172-.301.459-.301h1.898c.503 0 .545.249.686.568.584 1.331 1.981 4.002 2.354 2.511.214-.856.301-2.839-.615-3.01-.52-.096.396-.652 1.722-.652.33 0 .688.035 1.054.12.673.156.676.458.666.898-.034 1.666-.235 2.786.204 3.069.419.271 1.521-1.502 2.104-2.871.159-.378.191-.632.643-.632h2.322c1.216 0-.159 1.748-1.21 3.112-.847 1.099-.802 1.12.183 2.034.701.651 1.53 1.54 1.53 2.043 0 .238-.186.39-.656.39z"/></symbol><symbol viewBox="0 0 48 48" id="youtube" xmlns="http://www.w3.org/2000/svg"><path fill-rule="evenodd" clip-rule="evenodd" d="M24 0C10.745 0 0 10.745 0 24s10.745 24 24 24 24-10.745 24-24S37.255 0 24 0zm10.002 15.75a3.248 3.248 0 012.263 2.323c.535 2.05.535 6.327.535 6.327s0 4.277-.535 6.327a3.253 3.253 0 01-2.263 2.324C32.005 33.6 24 33.6 24 33.6s-8.005 0-10.002-.55a3.248 3.248 0 01-2.263-2.323C11.2 28.677 11.2 24.4 11.2 24.4s0-4.277.535-6.327a3.253 3.253 0 012.263-2.324C15.995 15.2 24 15.2 24 15.2s8.005 0 10.002.55z"/><path fill-rule="evenodd" clip-rule="evenodd" d="M21.6 28.8v-8l6.4 4-6.4 4z"/></symbol></svg>