<svg width="57" height="57" viewBox="0 0 57 57" fill="none" xmlns="http://www.w3.org/2000/svg">
<rect width="57" height="57" fill="#BDA47F"/>
<path d="M41.5472 10.6179L42.5659 11.9023L43.9035 12.2035L43.2391 12.7793L44.2755 14.1523L42.7608 13.169L41.9547 13.7714L41.7598 12.4958L40.2273 11.4417L41.6623 11.7163L41.5472 10.6179Z" fill="white"/>
<path d="M47.4909 18.1116L48.7045 19.6529L49.98 19.7415L49.5194 20.707L50.7861 22.3724L49.1828 21.3714L48.5981 22.4255L48.1198 20.6805L46.4722 19.5909L47.8452 19.6175L47.4909 18.1116Z" fill="white"/>
<path d="M49.0713 27.891L50.6746 30.0967L52.2071 29.8043L51.7553 31.6203L53.4384 34.0563L51.401 32.9047L50.7543 35.0041L50.028 32.0898L47.902 30.7788L49.6116 30.3358L49.0713 27.891Z" fill="white"/>
<path d="M18.3132 5.19415L19.2787 7.00124L22.2108 7.64789L19.8988 8.23254L20.8289 10.1991L18.198 8.63116L15.2925 9.27781L16.4618 7.56817L13.822 5.90281L17.2147 6.56718L18.3132 5.19415Z" fill="white"/>
<path d="M40.5935 38.3975L42.6575 41.9851L45.3061 40.9043L44.0571 44.5008L46.2717 48.6199L43.0827 47.1583L41.2845 51.7823L40.9213 46.113L37.5729 44.3325L40.7618 42.8266L40.5935 38.3975Z" fill="white"/>
<path d="M10.6341 15.071L11.7237 17.9322L16.1882 18.2068L12.4146 19.943L13.4422 23.2028L9.53568 21.2186L4.37132 23.4066L6.93135 19.8278L2.93628 17.5956L8.47269 17.7816L10.6341 15.071Z" fill="white"/>
<path d="M19.7301 32.7545L21.3866 36.8559L25.9752 35.9081L22.4939 39.7791L24.1858 44.6158L19.7478 42.7201L14.6455 48.0262L16.7537 41.3559L12.1208 39.0793L17.9939 37.6177L19.7301 32.7545Z" fill="white"/>
<path d="M31.2096 5.26373L32.1575 6.60133L33.9557 7.09739L32.7775 7.51373L33.7165 8.93991L31.9271 7.78834L30.4833 8.21353L30.7313 7.00881L28.9242 5.77751L30.9084 6.28243L31.2096 5.26373Z" fill="white"/>
</svg>
