<svg width="30" height="30" viewBox="0 0 30 30" fill="none" xmlns="http://www.w3.org/2000/svg">
    <path d="M29.5 29L24.4196 22.5H2.5001C1.39551 22.5 0.500069 21.6041 0.500088 20.4995C0.500198 14.2894 0.500038 8.71059 0.500006 2.50044C0.5 1.39587 1.39543 0.5 2.5 0.5H27.4987C28.6038 0.5 29.4994 1.39669 29.4989 2.50175C29.4945 11.6522 29.4996 19.6738 29.5 29Z"
          fill="white" stroke="#BDA47F" stroke-miterlimit="10" stroke-linecap="round"
          stroke-linejoin="round"/>
    <path d="M11.9697 10.25C12.522 10.25 12.9697 9.80228 12.9697 9.25C12.9697 8.69772 12.522 8.25 11.9697 8.25C11.4174 8.25 10.9697 8.69772 10.9697 9.25C10.9697 9.80228 11.4174 10.25 11.9697 10.25Z"
          fill="#8D3332"/>
    <path d="M17.9697 10.25C18.522 10.25 18.9697 9.80228 18.9697 9.25C18.9697 8.69772 18.522 8.25 17.9697 8.25C17.4174 8.25 16.9697 8.69772 16.9697 9.25C16.9697 9.80228 17.4174 10.25 17.9697 10.25Z"
          fill="#8D3332"/>
    <path d="M19.9697 13.25C19.9697 13.25 17.9697 15.25 14.9697 15.25C11.9697 15.25 9.96973 13.25 9.96973 13.25"
          stroke="#8D3332" stroke-miterlimit="10" stroke-linecap="round" stroke-linejoin="round"/>
</svg>