<svg width="21" height="21" viewBox="0 0 21 21" fill="none" xmlns="http://www.w3.org/2000/svg">
    <path d="M20 20L19.5039 18.0156C19.2981 17.1933 18.6869 16.5336 17.8836 16.2654L14.2177 15.0431C13.5814 14.7781 13.1214 14.1251 12.8244 13.5M1 20L1.49611 18.0156C1.70194 17.1933 2.31311 16.5336 3.11639 16.2654L6.78233 15.0431C8.02156 14.5269 8.59397 12.5393 8.59397 12.1519C6.61795 10.5199 7 7.05165 7 4.71767C7 3.23778 8.15139 1 10.5 1C12.8064 1 13.3912 2.17061 13.3912 2.65194C13.1853 2.85883 14 2.68678 14 4.71767C14 4.97105 14.0055 5.23265 14.0131 5.5"
          stroke="#C0AF95" stroke-linecap="round" stroke-linejoin="round"/>
    <path d="M7 9.00006C7 9.27507 6.77499 9.50008 6.49998 9.50008H5.49995C5.22494 9.50008 4.99993 9.27507 4.99993 9.00006V7C4.99993 6.72499 5.22494 6.49998 5.49995 6.49998H6.49998C6.77499 6.49998 7 6.72499 7 7V9.00006Z"
          stroke="#C0AF95" stroke-miterlimit="10" stroke-linecap="round" stroke-linejoin="round"/>
    <path d="M14.0005 9.0013C14.0005 9.27631 14.2255 9.50132 14.5005 9.50132H15.5005C15.7755 9.50132 16.0006 9.27631 16.0006 9.0013V7.00124C16.0006 6.72623 15.7755 6.50122 15.5005 6.50122H14.5005C14.2255 6.50122 14.0005 6.72623 14.0005 7.00124V9.0013Z"
          stroke="#C0AF95" stroke-miterlimit="10" stroke-linecap="round" stroke-linejoin="round"/>
    <path d="M11.0005 11.001H10.0005V11.501H11.0005V11.001Z" stroke="#C0AF95" stroke-miterlimit="10"
          stroke-linecap="round" stroke-linejoin="round"/>
    <path d="M16.0004 10.001L12.5008 11.5008H10.8657" stroke="#C0AF95" stroke-miterlimit="10"
          stroke-linecap="round" stroke-linejoin="round"/>
</svg>