<svg width="28" height="29" viewBox="0 0 28 29" fill="none" xmlns="http://www.w3.org/2000/svg">
<path d="M12.9195 21.7216C11.2302 21.972 9.50468 21.7077 7.96777 20.9632C6.43086 20.2187 5.15384 19.0286 4.30312 17.5478C3.45239 16.0671 3.06742 14.3644 3.19837 12.6617C3.32932 10.959 3.97012 9.33521 5.03725 8.00195C6.10439 6.6687 7.54839 5.68779 9.18106 5.18707C10.8137 4.68634 12.5594 4.68902 14.1905 5.19474C15.8217 5.70047 17.2626 6.68579 18.3257 8.02231C19.3887 9.35883 20.0245 10.9846 20.1503 12.6877" stroke="#A58A63" stroke-width="1.5" stroke-miterlimit="10" stroke-linecap="round" stroke-linejoin="round"/>
<path d="M19.2323 22.8133H15.1178C15.0323 22.8133 14.9895 22.7675 14.9895 22.6759V22.1261C14.9895 22.0589 15.0109 22.0039 15.0536 21.9611L16.9139 20.0276C17.3415 19.5816 17.6592 19.212 17.8669 18.9188C18.0746 18.6194 18.1784 18.3231 18.1784 18.0299C18.1784 17.7855 18.099 17.5809 17.9402 17.4159C17.7814 17.2449 17.54 17.1594 17.2163 17.1594C16.7153 17.1594 16.2266 17.4037 15.7501 17.8925C15.689 17.9658 15.6279 17.9627 15.5668 17.8833L15.1361 17.2968C15.0872 17.2357 15.0903 17.1746 15.1453 17.1135C15.7379 16.4721 16.4282 16.1514 17.2163 16.1514C17.8211 16.1514 18.3128 16.3133 18.6916 16.637C19.0765 16.9608 19.2689 17.419 19.2689 18.0116C19.2689 18.4087 19.1651 18.7844 18.9574 19.1387C18.7558 19.493 18.435 19.9207 17.9952 20.4216C17.6225 20.8493 17.1674 21.3166 16.6298 21.8237H19.2323C19.3239 21.8237 19.3697 21.8695 19.3697 21.9611V22.6759C19.3697 22.7675 19.3239 22.8133 19.2323 22.8133Z" fill="#8D3332"/>
<path d="M23.993 22.8133H23.1958C23.1041 22.8133 23.0583 22.7675 23.0583 22.6759V21.4663H20.1718C20.0801 21.4663 20.0343 21.4205 20.0343 21.3288V20.7332C20.0343 20.6721 20.0496 20.6171 20.0801 20.5682L22.3252 16.3621C22.3619 16.2949 22.4138 16.2613 22.481 16.2613H23.4065C23.4615 16.2613 23.4982 16.2797 23.5165 16.3163C23.5348 16.3469 23.5318 16.3835 23.5073 16.4263L21.3447 20.4858H23.0583L23.0766 19.212C23.0888 19.1265 23.1347 19.0837 23.2141 19.0837H23.993C24.0846 19.0837 24.1304 19.1265 24.1304 19.212V20.4858H24.6894C24.7811 20.4858 24.8269 20.5285 24.8269 20.6141V21.3288C24.8269 21.4205 24.7811 21.4663 24.6894 21.4663H24.1304V22.6759C24.1304 22.7675 24.0846 22.8133 23.993 22.8133Z" fill="#8D3332"/>
<path d="M7.86792 11.2176L11.572 14.9217L15.4557 11.0381" stroke="#8D3332" stroke-width="1.5" stroke-linecap="round"/>
</svg>
