<svg width="28" height="29" viewBox="0 0 28 29" fill="none" xmlns="http://www.w3.org/2000/svg">
<path d="M8.63267 19.8137H6.70836C6.32958 19.8137 6.01967 19.5014 6.01967 19.1197L6.01965 6.52404C6.01965 6.14236 6.32957 5.83008 6.70835 5.83008H20.3114C20.6902 5.83008 21.0001 6.14236 21.0001 6.52404L21.0001 19.1197C21.0001 19.5014 20.6902 19.8137 20.3114 19.8137H15.4147" stroke="#A58A63" stroke-width="1.5" stroke-miterlimit="10" stroke-linecap="round" stroke-linejoin="round"/>
<path d="M10.9963 19.8135C10.9963 19.5746 10.9963 18.0054 10.9963 15.0766M10.9963 15.0766C10.9963 10.9295 10.9963 10.4998 10.9963 8.91429C10.9963 8.85906 11.0411 8.81348 11.0963 8.81348H13.9963C15.6532 8.81348 16.9963 10.1566 16.9963 11.8135V12.0766C16.9963 13.7335 15.6532 15.0766 13.9963 15.0766H10.9963Z" stroke="#8D3332" stroke-width="1.5" stroke-linecap="round"/>
</svg>
