<svg width="28" height="29" viewBox="0 0 28 29" fill="none" xmlns="http://www.w3.org/2000/svg">
    <path fill-rule="evenodd" clip-rule="evenodd" d="M20.0119 15.1181L15.0524 24.1957L15.0457 24.2078C14.8275 24.587 14.4366 24.8134 14.0001 24.8134C13.5635 24.8134 13.1726 24.587 12.9544 24.2078L12.9476 24.1957L7.98811 15.1181C6.80428 12.9513 6.83823 10.3794 8.07893 8.23832C10.6714 3.76445 17.3205 3.7505 19.921 8.23832C21.1617 10.3794 21.1957 12.9513 20.0119 15.1181ZM21.2189 7.48627C22.7217 10.0796 22.764 13.2092 21.3283 15.8373L16.3649 24.9221C16.363 24.9254 16.355 24.9399 16.3459 24.9558C15.8608 25.7989 14.9749 26.3134 14.0001 26.3134C13.0258 26.3134 12.1403 25.7996 11.655 24.9572C11.6454 24.9406 11.6373 24.9258 11.6355 24.9226L11.6312 24.9149L6.67176 15.8373C5.23595 13.2093 5.27831 10.0796 6.78109 7.48626C9.94997 2.01777 18.039 1.99856 21.2189 7.48627Z" fill="#A58A63"/>
    <path fill-rule="evenodd" clip-rule="evenodd" d="M13.9999 15.9385C11.6207 15.9385 9.68744 14.0052 9.68744 11.626C9.68744 9.24673 11.6207 7.31348 13.9999 7.31348C16.3792 7.31348 18.3124 9.24673 18.3124 11.626C18.3124 14.0052 16.3792 15.9385 13.9999 15.9385ZM13.9999 14.4385C12.4491 14.4385 11.1874 13.1768 11.1874 11.626C11.1874 10.0752 12.4491 8.81348 13.9999 8.81348C15.5508 8.81348 16.8124 10.0752 16.8124 11.626C16.8124 13.1768 15.5508 14.4385 13.9999 14.4385Z" fill="#8D3332"/>
</svg>