<svg width="77" height="76" viewBox="0 0 77 76" fill="none" xmlns="http://www.w3.org/2000/svg">
<path fill-rule="evenodd" clip-rule="evenodd" d="M31.0054 37.3743L33.5839 35.3115H43.6368L45.9417 37.3603L45.3385 48.2211L38.6145 51.4335L32.2022 48.529L31.0054 37.3743ZM40.8991 37.1775C39.7073 36.1505 37.6574 36.5706 37.0615 38.041C36.7994 39.068 37.5144 38.5778 37.9911 38.2277C38.0891 38.1558 38.1647 38.0181 38.2419 37.8775C38.39 37.6078 38.544 37.3274 38.8731 37.4809C39.3736 37.4575 40.9467 39.3947 40.8514 39.4414C40.0117 39.4685 39.1433 39.4537 38.2754 39.4388H38.2754L38.2754 39.4388L38.2753 39.4388C36.9016 39.4153 35.529 39.3917 34.2728 39.5348C34.704 40.7832 36.0939 41.1652 37.2243 41.4758L37.2243 41.4758L37.2243 41.4758C37.531 41.5601 37.8185 41.6391 38.0626 41.7287C37.9673 41.9466 37.9779 42.2059 37.9885 42.4652C37.9938 42.5949 37.9991 42.7246 37.9911 42.849C37.9803 43.0196 37.8103 43.1609 37.6221 43.3175C37.398 43.5038 37.1481 43.7117 37.1092 44.016C36.847 44.6229 37.1807 45.3698 37.8958 45.4164C38.0273 45.4647 38.0114 45.6239 37.9967 45.7717C37.9901 45.8383 37.9837 45.9025 37.9911 45.9532C37.9911 46.0124 37.9338 46.0247 37.8736 46.0376C37.8387 46.0451 37.8028 46.0528 37.7766 46.07C36.9185 46.21 36.0843 46.5367 35.4169 47.0969C35.6506 47.1233 35.9351 47.1033 36.2218 47.083H36.2218L36.2219 47.083C36.6957 47.0496 37.1757 47.0158 37.4429 47.1903C35.9889 49.2442 39.5404 50.5979 39.4451 48.4273L39.4213 48.4506C39.4213 48.4233 39.4049 48.412 39.3914 48.4026L39.3914 48.4026L39.3913 48.4026C39.3818 48.3959 39.3736 48.3903 39.3736 48.3806C39.3736 48.3339 39.2783 48.3573 39.3021 48.3806C39.0637 49.3609 37.6336 48.4973 38.2533 47.7504C38.259 47.7448 38.268 47.7357 38.28 47.7236L38.28 47.7236C38.4179 47.584 38.9454 47.0502 39.2306 47.0502C39.4508 47.0502 39.6841 47.0575 39.9221 47.065C40.5342 47.0842 41.1774 47.1044 41.7095 47.0035C41.4522 46.6923 41.0603 46.541 40.6803 46.3944C40.4619 46.3101 40.2475 46.2274 40.0648 46.1166C40.5654 45.5798 40.0887 44.5995 39.4213 44.4828C39.4138 44.4828 39.4056 44.4831 39.3968 44.4834C39.3218 44.4857 39.2092 44.4891 39.2306 44.3428C39.2478 44.2752 39.2401 44.1954 39.2323 44.1144C39.2184 43.9717 39.2043 43.8253 39.3259 43.736C41.0238 42.9731 41.7006 41.7349 42.4644 40.3373L42.4646 40.3371L42.4647 40.3368C42.6123 40.0669 42.7631 39.791 42.9251 39.5114C42.9556 39.3919 42.8006 39.4063 42.6539 39.4199L42.6538 39.4199C42.5713 39.4275 42.4913 39.4349 42.4484 39.4181C42.3292 39.4181 42.2815 39.3714 42.2815 39.2547C42.1624 38.9046 41.8048 38.041 40.8991 37.1775Z" fill="#C43638"/>
<path fill-rule="evenodd" clip-rule="evenodd" d="M51.5 26.2645C50.4217 25.3192 48.8713 25.3408 47.9816 25.6153C48.5643 24.8999 49.9221 24.313 50.3216 24.2419C50.626 24.3561 51.5 25.2538 51.5 26.2645ZM54.9424 22.3502C54.5138 20.0577 51.1243 20.069 47.5295 20.081C45.1766 20.0889 42.7358 20.097 40.9797 19.4597C40.8948 20.5655 42.3464 22.3371 43.7349 22.9925C41.5743 24.868 39.6147 28.476 38.9561 32.9335H44.16C43.4135 28.5476 47.6843 22.714 52.5967 23.4562C53.8262 23.6427 54.215 24.4748 54.2899 24.7292C54.707 24.3773 55.093 23.1533 54.9424 22.3502ZM48.2376 38.9067L47.9724 43.6805C49.1611 42.6018 50.8338 42.3308 51.6957 42.3308C52.1197 44.8791 52.8771 46.9899 53.8609 48.1261C55.4632 49.9722 58.0795 49.9463 59.2139 48.67C59.2231 48.6595 59.2298 48.6471 59.2335 48.6337C59.2373 48.6203 59.2379 48.6062 59.2355 48.5925C59.233 48.5788 59.2275 48.5658 59.2194 48.5546C59.2112 48.5433 59.2007 48.534 59.1884 48.5273C58.5219 48.1444 54.7082 45.8028 53.9448 41.9658C54.2445 41.8641 54.5374 41.7436 54.8219 41.605C56.053 43.6423 57.8448 45.4568 59.2874 46.15C61.7106 47.3121 63.9288 46.7469 64.9126 45.0454C64.9483 44.9854 64.9046 44.9108 64.8323 44.9041C63.3334 44.7845 58.7335 43.4661 56.7749 40.2543C57.0015 40.0486 57.2178 39.8319 57.4232 39.6051C59.4731 41.1656 62.3705 42.5448 64.4451 42.8264C66.8726 43.1565 69.6231 42.3817 69.6897 39.559C69.6909 39.5026 69.6402 39.4562 69.5803 39.4596C68.717 39.5119 63.0038 39.7604 58.9326 37.4235C59.074 37.1546 59.2059 36.8808 59.328 36.6026C59.328 36.6026 65.4796 38.0568 68.3943 37.5752C71.2908 37.0972 72.9873 34.9379 72.6599 32.2515C72.6503 32.1849 72.5721 32.1444 72.5098 32.1761C71.6501 32.6113 66.6065 34.9739 60.1458 34.0999C60.2128 33.7918 60.2696 33.4815 60.3161 33.1696C64.6161 32.6552 68.1114 31.9259 70.3389 30.6869C72.8779 29.2737 73.9882 25.8999 72.7067 23.3904C72.6734 23.3271 72.5814 23.3157 72.5355 23.369C71.833 24.1775 67.4172 28.9812 60.4597 30.4746C60.442 30.1141 60.4091 29.7545 60.3611 29.3968C63.7403 27.4806 67.0391 25.2726 68.6105 23.2536C70.9848 20.2012 70.7664 16.3073 68.5068 14.3221C68.4952 14.3122 68.4816 14.3048 68.467 14.3005C68.4523 14.2962 68.4368 14.295 68.4217 14.2972C68.4065 14.2993 68.392 14.3047 68.3791 14.3129C68.3662 14.3211 68.3552 14.3319 68.3468 14.3447C67.6319 15.5242 60.9401 26.3396 53.5934 31.0092C53.5037 31.0665 53.4134 31.1226 53.3223 31.1775C53.1116 31.3055 53.0885 31.5794 53.2676 31.7418C54.1151 32.5095 54.6414 33.5777 54.6414 34.7639C54.6414 36.8263 53.0519 38.5414 50.9506 38.9136C50.2134 39.0564 49.2505 39.0719 48.2376 38.9067ZM29.2651 43.4464L28.7852 38.9735C27.957 39.0629 27.1839 39.0322 26.5687 38.9129C24.4665 38.5412 22.8768 36.8261 22.8768 34.7639C22.8768 33.5782 23.4047 32.5088 24.2503 31.7414C24.4311 31.5797 24.4066 31.3057 24.1976 31.1778C24.1057 31.1229 24.0145 31.0668 23.9241 31.0096C16.5816 26.3427 9.89358 15.5347 9.17255 14.3476C9.16409 14.3345 9.15291 14.3233 9.13977 14.3148C9.12664 14.3064 9.11184 14.3009 9.09639 14.2986C9.08093 14.2964 9.06518 14.2974 9.05017 14.3018C9.03517 14.3061 9.02127 14.3136 9.00942 14.3238C6.75312 16.3102 6.53386 20.2023 8.90835 23.2541C10.4798 25.2731 13.7786 27.4811 17.1566 29.3973C17.109 29.7549 17.0765 30.1143 17.0591 30.4746C10.1074 28.9826 5.69489 24.187 4.98575 23.3728C4.93819 23.3171 4.84426 23.3283 4.81216 23.3918C3.53276 25.903 4.64331 29.2739 7.17974 30.6872C9.4075 31.9261 12.903 32.6555 17.2028 33.1699C17.2492 33.4817 17.3059 33.792 17.3728 34.1002C10.9188 34.9729 5.87776 32.6158 5.0112 32.1773C4.94699 32.1444 4.86899 32.1851 4.86091 32.2529C4.5344 34.9391 6.22971 37.0963 9.12618 37.5745C12.04 38.056 18.1908 36.6016 18.1908 36.6016C18.3133 36.8799 18.4455 37.1538 18.5873 37.4228C14.5172 39.7585 8.80633 39.5119 7.93929 39.4589C7.87841 39.4555 7.82752 39.504 7.82895 39.5594C7.89673 42.3812 10.6462 43.1558 13.0737 42.8257C15.1474 42.5441 18.0462 41.1649 20.0954 39.6046C20.3011 39.8312 20.5174 40.0478 20.7437 40.2538C18.7842 43.4654 14.185 44.784 12.6864 44.9036C12.6138 44.9108 12.5715 44.9852 12.606 45.0451C13.5898 46.7466 15.808 47.3119 18.2324 46.1497C19.6735 45.4565 21.4654 43.6421 22.6961 41.6048C22.9809 41.743 23.2739 41.8635 23.5736 41.9656C22.8102 45.8025 18.9965 48.1437 18.3299 48.5273C18.3178 48.534 18.3073 48.5434 18.2992 48.5547C18.2911 48.5659 18.2856 48.5789 18.2832 48.5926C18.2807 48.6063 18.2814 48.6203 18.2851 48.6337C18.2888 48.6471 18.2954 48.6595 18.3045 48.67C19.4388 49.9461 22.0561 49.972 23.6584 48.1259C24.6423 46.9897 25.3987 44.8789 25.8225 42.3306C26.6191 42.3306 28.1063 42.5617 29.2651 43.4464ZM33.4429 32.9335H38.6453C37.9881 28.476 36.0283 24.868 33.8677 22.9928C35.256 22.3374 36.709 20.5657 36.6226 19.4602C34.8667 20.0975 32.4259 20.0894 30.0729 20.0816C26.478 20.0697 23.088 20.0584 22.6587 22.3509C22.5094 23.154 22.8956 24.377 23.3127 24.729C23.3874 24.4745 23.7771 23.6422 25.0059 23.4558C29.9182 22.7135 34.1891 28.5474 33.4429 32.9335ZM56.453 13.6453C56.3412 13.287 59.9827 13.2779 59.9827 15.5573C59.9827 16.3138 59.4482 16.873 58.9088 17.4375C58.3592 18.0126 57.8044 18.5931 57.8044 19.3931C57.8044 20.1312 58.5987 20.6725 58.8424 20.6725C58.2812 18.128 60.601 19.4597 61.2276 19.9353C60.4624 17.8319 61.2262 17.0295 61.8644 16.359C62.2645 15.9387 62.6152 15.5702 62.5089 14.9656C62.3915 14.2947 61.4335 14.1584 60.5058 14.0264C59.9177 13.9427 59.3418 13.8607 58.9999 13.6453C58.5827 13.3828 58.1452 12.9178 57.7047 12.4496C56.4934 11.1622 55.2598 9.85092 54.3655 12.6608C56.6389 14.7714 55.316 17.8783 52.4298 17.8783C52.4298 17.8783 52.4138 18.3337 52.4402 18.3698C55.8827 18.2015 57.0827 15.6712 56.453 13.6453ZM16.2908 19.9353C16.9171 19.4597 19.2367 18.128 18.6769 20.6725C18.9195 20.6725 19.7137 20.1312 19.7137 19.3931C19.7137 18.5931 19.159 18.0126 18.6094 17.4375C18.0699 16.873 17.5354 16.3138 17.5354 15.5573C17.5354 13.2779 21.1767 13.287 21.0652 13.6453C20.4364 15.6714 21.6364 18.2017 25.0789 18.3698C25.1043 18.3337 25.0884 17.878 25.0884 17.878C22.2033 17.878 20.8804 14.7714 23.1526 12.6606C22.2584 9.85083 21.0247 11.162 19.8134 12.4494L19.8134 12.4494C19.3729 12.9176 18.9354 13.3826 18.5183 13.6451C18.1762 13.8606 17.6002 13.9425 17.012 14.0262C16.0843 14.1583 15.1265 14.2946 15.0092 14.9656C14.9034 15.5704 15.2541 15.9388 15.6541 16.3591C16.2923 17.0295 17.0559 17.8317 16.2908 19.9353ZM26.0653 26.2645C27.1444 25.3192 28.6954 25.3408 29.5836 25.6153C29.0034 24.8999 27.6431 24.313 27.2446 24.2419C26.9402 24.3561 26.0653 25.2538 26.0653 26.2645ZM40.4382 5.0475L38.7593 3L37.0799 5.0475L38.7588 7.20202L40.4382 5.0475ZM50.0241 11.2383L48.8304 9.78339L47.6371 11.2383L48.8301 12.6604L50.0241 11.2383ZM29.882 11.2383L28.6883 9.78339L27.4952 11.2383L28.6885 12.6604L29.882 11.2383ZM26.4617 18.3701H30.9158C34.6605 18.3701 36.3454 16.0714 36.8545 14.0782H40.6648C41.1742 16.0714 42.8581 18.3698 46.604 18.3698H51.0581C51.0581 18.3698 51.8372 17.3128 52.0326 16.7894C52.7361 14.906 51.8372 14.0273 50.5257 14.0273L48.8301 15.564L47.135 14.0277C45.8235 14.0277 44.9246 14.906 45.6281 16.7896C45.718 17.0303 45.9329 17.3841 46.1365 17.6952C44.556 17.4781 42.5385 16.396 42.0962 14.0782C42.0962 14.0782 43.2638 12.2233 43.5573 11.4725C44.61 8.77272 43.2652 7.6693 41.2986 7.6693L38.7595 10.6538L36.2205 7.6693C34.2539 7.6693 32.9093 8.77272 33.9633 11.4725C34.255 12.2233 35.4241 14.0784 35.4241 14.0784C34.9806 16.396 32.9635 17.478 31.3831 17.6954C31.5876 17.3839 31.8016 17.0303 31.891 16.7894C32.5933 14.906 31.6967 14.0275 30.3843 14.0275L28.6887 15.5642L26.9932 14.028C25.681 14.028 24.7845 14.9062 25.4867 16.7898C25.6822 17.313 26.4617 18.3701 26.4617 18.3701ZM47.7663 47.3932L47.6348 49.7599L38.6412 54.0566L29.9827 50.1347L29.6895 47.4022C26.5366 47.8726 26.8696 52.6594 31.0662 52.6594C33.8639 53.3588 35.9256 56.5089 36.698 58.6232C32.902 59.5423 28.1354 62.0747 27.1711 64.8389C26.7996 65.9062 28.0262 67.3611 29.5158 67.6538C29.5289 67.6567 29.5424 67.657 29.5555 67.6546C29.5622 67.6534 29.5687 67.6515 29.575 67.649C29.5811 67.6465 29.5869 67.6435 29.5924 67.64C29.5996 67.6353 29.6062 67.6297 29.612 67.6234L29.6208 67.6123C29.624 67.6077 29.6267 67.6029 29.629 67.5979L29.6328 67.5886L29.6364 67.5759C30.4145 63.4492 34.8524 60.3742 37.1615 59.8519L37.2345 60.048L37.3556 60.3718C34.8405 61.5613 32.4016 64.0696 31.7053 67.0522C31.3855 68.4179 32.9086 69.649 34.1659 69.986C34.2291 70.0026 34.2912 69.9589 34.2948 69.898C34.5338 66.1264 36.1991 62.9232 37.6911 61.4662C37.732 61.7511 37.7627 62.0375 37.7831 62.3246C37.7831 62.3246 36.2555 66.5809 36.2555 69.6864C36.2555 71.1313 38.4029 72.1398 38.7199 72.2808C39.1163 72.1398 41.262 71.1313 41.262 69.6864C41.262 66.5806 39.7348 62.3244 39.7348 62.3244C39.7557 62.0372 39.7868 61.7509 39.828 61.4659C41.3191 62.9237 42.9854 66.1252 43.2234 69.8968C43.2248 69.9116 43.2294 69.926 43.2369 69.9388C43.2444 69.9517 43.2547 69.9628 43.2669 69.9713C43.2791 69.9798 43.2931 69.9855 43.3077 69.988C43.3224 69.9906 43.3374 69.9899 43.3518 69.986C44.6108 69.649 46.1325 68.4179 45.8141 67.0522C45.1163 64.0701 42.6786 61.5613 40.1638 60.3718L40.2467 60.1478L40.2469 60.1472C40.2726 60.0776 40.2862 60.0407 40.3569 59.8517C42.6672 60.3739 47.1034 63.449 47.8818 67.5756C47.8875 67.6019 47.9034 67.6248 47.926 67.6394C47.9486 67.654 47.976 67.659 48.0023 67.6534C49.491 67.3609 50.7195 65.9055 50.3459 64.8385C49.384 62.0742 44.6162 59.5418 40.8194 58.6227C41.5933 56.5086 45.4443 53.3026 46.4536 52.6594C51.3495 52.6594 50.9535 47.8295 47.7663 47.3932Z" fill="#BDAF98"/>
</svg>
