<svg width="153" height="54" viewBox="0 0 153 54" fill="none" xmlns="http://www.w3.org/2000/svg">
<path d="M22.2026 27.0541C22.1611 23.1931 25.4374 21.3166 25.5895 21.2221C23.7371 18.5761 20.8617 18.2251 19.8525 18.1981C17.4333 17.9551 15.097 19.6021 13.8667 19.6021C12.6087 19.6021 10.7148 18.2116 8.6827 18.2521C6.05613 18.2926 3.59545 19.7776 2.25452 22.0861C-0.524105 26.7841 1.5495 33.6961 4.21754 37.4896C5.54464 39.3526 7.10676 41.4316 9.13889 41.3506C11.1295 41.2696 11.876 40.1086 14.2814 40.1086C16.6592 40.1086 17.3642 41.3506 19.4378 41.3101C21.5805 41.2696 22.9214 39.4471 24.2071 37.5571C25.7415 35.4241 26.3636 33.3181 26.3913 33.2101C26.3498 33.2101 22.2441 31.6846 22.2026 27.0541Z" fill="#BEA57C"/>
<path d="M18.2764 15.7005C19.3547 14.391 20.0873 12.609 19.88 10.8C18.3317 10.8675 16.3825 11.853 15.2627 13.1355C14.2674 14.2695 13.3965 16.119 13.6177 17.8605C15.3595 17.9685 17.1566 16.983 18.2764 15.7005Z" fill="#BEA57C"/>
<path d="M46.1183 36.8416H39.5795L38.0036 41.3776H35.2388L41.4319 24.6106H44.3073L50.5005 41.3776H47.6804L46.1183 36.8416ZM40.2569 34.7491H45.4409L42.8835 27.3916H42.8143L40.2569 34.7491Z" fill="#BEA57C"/>
<path d="M63.8959 35.2621C63.8959 39.0556 61.8085 41.4991 58.6704 41.4991C56.8871 41.4991 55.4771 40.7161 54.7306 39.3661H54.6753V45.4141H52.104V29.1466H54.5923V31.1851H54.6338C55.3526 29.8756 56.8733 29.0251 58.6151 29.0251C61.7946 29.0251 63.8959 31.4686 63.8959 35.2621ZM61.2555 35.2621C61.2555 32.7916 59.9422 31.1581 57.9516 31.1581C55.9886 31.1581 54.6614 32.8186 54.6614 35.2621C54.6614 37.7191 55.9886 39.3796 57.9516 39.3796C59.9422 39.3796 61.2555 37.7596 61.2555 35.2621Z" fill="#BEA57C"/>
<path d="M77.6648 35.2621C77.6648 39.0556 75.5774 41.4991 72.4393 41.4991C70.656 41.4991 69.246 40.7161 68.4995 39.3661H68.4442V45.4141H65.8867V29.1466H68.375V31.1851H68.4165C69.1354 29.8756 70.656 29.0251 72.3978 29.0251C75.5774 29.0251 77.6648 31.4686 77.6648 35.2621ZM75.0244 35.2621C75.0244 32.7916 73.7111 31.1581 71.7205 31.1581C69.7574 31.1581 68.4303 32.8186 68.4303 35.2621C68.4303 37.7191 69.7574 39.3796 71.7205 39.3796C73.7249 39.3796 75.0244 37.7596 75.0244 35.2621Z" fill="#BEA57C"/>
<path d="M86.7745 36.7066C86.9681 38.3672 88.6131 39.4606 90.8803 39.4606C93.0506 39.4606 94.5989 38.3671 94.5989 36.8686C94.5989 35.5726 93.6589 34.7896 91.4332 34.2496L89.2075 33.7231C86.0557 32.9806 84.5903 31.5361 84.5903 29.2006C84.5903 26.3116 87.1754 24.3271 90.8388 24.3271C94.4607 24.3271 96.949 26.3116 97.0319 29.2006H94.433C94.281 27.5266 92.8571 26.5141 90.7973 26.5141C88.7375 26.5141 87.3137 27.5401 87.3137 29.0251C87.3137 30.2131 88.2122 30.9016 90.4241 31.4416L92.318 31.9006C95.8431 32.7106 97.3084 34.1011 97.3084 36.5446C97.3084 39.6766 94.751 41.6476 90.6867 41.6476C86.8851 41.6476 84.3138 39.7306 84.1479 36.6931H86.7745V36.7066Z" fill="#BEA57C"/>
<path d="M102.866 26.2576V29.1466H105.244V31.1311H102.866V37.8676C102.866 38.9206 103.336 39.4066 104.387 39.4066C104.649 39.4066 105.064 39.3661 105.23 39.3526V41.3236C104.94 41.3911 104.373 41.4451 103.806 41.4451C101.276 41.4451 100.281 40.5136 100.281 38.1511V31.1446H98.4561V29.1601H100.281V26.2576H102.866Z" fill="#BEA57C"/>
<path d="M106.612 35.262C106.612 31.4145 108.935 28.998 112.543 28.998C116.165 28.998 118.473 31.4145 118.473 35.262C118.473 39.123 116.179 41.526 112.543 41.526C108.921 41.526 106.612 39.123 106.612 35.262ZM115.874 35.262C115.874 32.6295 114.63 31.0635 112.557 31.0635C110.483 31.0635 109.239 32.6295 109.239 35.262C109.239 37.908 110.483 39.4605 112.557 39.4605C114.63 39.4605 115.874 37.908 115.874 35.262Z" fill="#BEA57C"/>
<path d="M120.616 29.1467H123.063V31.2257H123.118C123.505 29.8487 124.653 29.0117 126.132 29.0117C126.505 29.0117 126.809 29.0657 127.017 29.1062V31.4552C126.809 31.3742 126.367 31.3067 125.869 31.3067C124.21 31.3067 123.187 32.4002 123.187 34.1147V41.3642H120.616V29.1467Z" fill="#BEA57C"/>
<path d="M138.85 37.7865C138.504 40.0005 136.292 41.526 133.459 41.526C129.823 41.526 127.556 39.15 127.556 35.316C127.556 31.482 129.823 28.998 133.348 28.998C136.804 28.998 138.988 31.32 138.988 35.0325V35.8965H130.155V36.045C130.155 38.1375 131.496 39.501 133.528 39.501C134.952 39.501 136.071 38.8395 136.417 37.7865H138.85ZM130.168 34.128H136.431C136.375 32.2515 135.145 31.023 133.362 31.023C131.578 31.0365 130.307 32.292 130.168 34.128Z" fill="#BEA57C"/>
<path d="M38.4323 15.39H39.5382C40.4506 15.39 41.0865 14.8635 41.0865 14.1075C41.0865 13.365 40.5197 12.879 39.5382 12.879C38.5705 12.879 37.9484 13.3515 37.8793 14.1345H36.6628C36.7458 12.6765 37.8517 11.772 39.5797 11.772C41.1971 11.772 42.3445 12.663 42.3445 13.932C42.3445 14.823 41.7362 15.579 40.8515 15.768V15.8625C41.9159 15.9705 42.6901 16.686 42.6901 17.8065C42.6901 19.1835 41.3492 20.196 39.6073 20.196C37.8102 20.196 36.5799 19.251 36.5107 17.8065H37.7411C37.8102 18.576 38.5429 19.0755 39.6073 19.0755C40.6718 19.0755 41.3768 18.522 41.3768 17.7255C41.3768 16.929 40.7133 16.4295 39.5659 16.4295H38.4323V15.39Z" fill="#BEA57C"/>
<path d="M44.0864 18.3196C44.0864 17.2261 44.9159 16.5916 46.395 16.5106L48.0816 16.4161V15.8896C48.0816 15.2416 47.653 14.8906 46.8098 14.8906C46.1186 14.8906 45.6485 15.1336 45.5103 15.5656H44.3214C44.4458 14.5261 45.455 13.8511 46.8651 13.8511C48.4272 13.8511 49.3119 14.6071 49.3119 15.8896V20.0476H48.123V19.1971H48.0263C47.653 19.8046 46.9756 20.1556 46.16 20.1556C44.9573 20.1421 44.0864 19.4401 44.0864 18.3196ZM48.0816 17.8066V17.2936L46.5609 17.3881C45.7038 17.4421 45.3168 17.7256 45.3168 18.2656C45.3168 18.8191 45.8006 19.1296 46.4642 19.1296C47.4042 19.1296 48.0816 18.5626 48.0816 17.8066Z" fill="#BEA57C"/>
<path d="M52.5741 14.9715V20.034H51.3438V13.959H55.4357V14.9715H52.5741Z" fill="#BEA57C"/>
<path d="M62.8868 16.9966C62.8868 18.9271 61.8915 20.1421 60.3155 20.1421C59.4308 20.1421 58.7258 19.7641 58.394 19.1161H58.2972V22.0591H57.0669V13.9591H58.2558V14.9581H58.3525C58.7258 14.2696 59.4585 13.8511 60.3017 13.8511C61.8915 13.8646 62.8868 15.0661 62.8868 16.9966ZM61.6288 16.9966C61.6288 15.7141 61.0067 14.9311 59.9699 14.9311C58.9331 14.9311 58.2834 15.7276 58.2834 16.9966C58.2834 18.2656 58.9331 19.0621 59.9561 19.0621C61.0067 19.0621 61.6288 18.2926 61.6288 16.9966Z" fill="#BEA57C"/>
<path d="M64.5182 22.221V21.1815C64.615 21.195 64.8085 21.2085 64.9191 21.2085C65.4997 21.2085 65.8315 20.979 66.0389 20.358L66.1356 20.061L63.8823 13.959H65.2233L66.7854 18.792H66.8821L68.4304 13.959H69.7299L67.4075 20.2905C66.8821 21.7755 66.2877 22.248 65.0159 22.248C64.9329 22.248 64.6426 22.2345 64.5182 22.221Z" fill="#BEA57C"/>
<path d="M70.6978 18.3196H71.9143C72.0387 18.8596 72.5502 19.1296 73.269 19.1296C74.0846 19.1296 74.5961 18.7786 74.5961 18.2251C74.5961 17.6446 74.1399 17.3611 73.269 17.3611H72.3428V16.4296H73.2552C74.0017 16.4296 74.3749 16.1461 74.3749 15.6466C74.3749 15.2011 74.0155 14.8636 73.2552 14.8636C72.564 14.8636 72.0663 15.1471 71.9834 15.6331H70.7945C70.9189 14.5531 71.8451 13.8511 73.2414 13.8511C74.7205 13.8511 75.5638 14.4991 75.5638 15.5251C75.5638 16.1326 75.1629 16.6321 74.5823 16.7671V16.8616C75.3841 17.0506 75.7988 17.5501 75.7988 18.2251C75.7988 19.3861 74.7897 20.1421 73.2552 20.1421C71.9143 20.1556 70.8083 19.5481 70.6978 18.3196Z" fill="#BEA57C"/>
<path d="M77.5957 20.0474V13.9724H78.8122V18.1574H78.909L81.7844 13.9724H83.0009V20.0474H81.7844V15.8489H81.6876L78.8122 20.0474H77.5957Z" fill="#BEA57C"/>
<path d="M89.7057 14.9715H87.7427V20.034H86.5123V14.9715H84.5493V13.959H89.7057V14.9715Z" fill="#BEA57C"/>
<path d="M96.3133 18.4006C96.0368 19.4941 95.0415 20.1556 93.6176 20.1556C91.8343 20.1556 90.7422 18.9676 90.7422 17.0236C90.7422 15.0796 91.8619 13.8511 93.6176 13.8511C95.3456 13.8511 96.3962 15.0121 96.3962 16.9156V17.3341H92.0002V17.4016C92.0416 18.4681 92.6776 19.1431 93.6591 19.1431C94.4056 19.1431 94.917 18.8866 95.1382 18.4006H96.3133ZM92.0002 16.4431H95.1382C95.1106 15.4846 94.5161 14.8636 93.6038 14.8636C92.6914 14.8636 92.0693 15.4981 92.0002 16.4431Z" fill="#BEA57C"/>
<path d="M101.525 13.959H104.331C105.548 13.959 106.267 14.5665 106.267 15.5115C106.267 16.1325 105.824 16.686 105.216 16.794V16.8885C106.018 16.983 106.543 17.55 106.543 18.2925C106.543 19.359 105.727 20.0475 104.359 20.0475H101.525V13.959ZM102.741 14.8905V16.47H103.958C104.704 16.47 105.05 16.1865 105.05 15.6735C105.05 15.201 104.746 14.8905 104.082 14.8905H102.741ZM102.741 17.3475V19.1295H104.193C104.926 19.1295 105.313 18.819 105.313 18.2385C105.313 17.631 104.87 17.3475 104.041 17.3475H102.741Z" fill="#BEA57C"/>
</svg>
