<svg width="20" height="20" viewBox="0 0 20 20" fill="none" xmlns="http://www.w3.org/2000/svg">
<path d="M5.11875 15.0002H2.70824C2.32946 15.0002 2.01954 14.6879 2.01954 14.3062L2.01953 3.71058C2.01953 3.3289 2.32944 3.01661 2.70823 3.01661H17.3113C17.69 3.01661 18 3.3289 18 3.71058L18 14.3062C18 14.6879 17.6901 15.0002 17.3113 15.0002H7.87354" stroke="#A58A63" stroke-width="1.5" stroke-miterlimit="10" stroke-linecap="round" stroke-linejoin="round"/>
<path d="M7.87392 15.1218L5.11914 18.5916V15.1218" stroke="#A58A63" stroke-width="1.5" stroke-miterlimit="10" stroke-linecap="round" stroke-linejoin="round"/>
<path d="M10 10.0195L10 9.0083" stroke="#8D3332" stroke-miterlimit="10" stroke-linecap="round" stroke-linejoin="round"/>
<path d="M8.27832 7.27348C8.27832 6.31581 9.04966 5.53857 10.0001 5.53857C10.9505 5.53857 11.7218 6.31581 11.7218 7.27348C11.7218 8.23115 10.9505 9.00838 10.0001 9.00838" stroke="#8D3332" stroke-miterlimit="10" stroke-linecap="round" stroke-linejoin="round"/>
<circle cx="10.0098" cy="12.0088" r="0.75" fill="#8D3332"/>
</svg>
