<svg width="20" height="20" viewBox="0 0 20 20" fill="none" xmlns="http://www.w3.org/2000/svg">
<path d="M12.599 9.67476C12.599 10.3407 12.4004 10.8599 12.0033 11.2326C11.6063 11.6052 11.0564 11.7916 10.3539 11.7916H9.03433V12.433H10.5738C10.6655 12.433 10.7113 12.4758 10.7113 12.5613V13.0928C10.7113 13.1844 10.6655 13.2303 10.5738 13.2303H9.03433V13.8625C9.03433 13.9542 8.99156 14 8.90604 14H8.11796C8.02633 14 7.98051 13.9542 7.98051 13.8625V13.2303H7.43985C7.34822 13.2303 7.3024 13.1844 7.3024 13.0928V12.5613C7.3024 12.4758 7.34822 12.433 7.43985 12.433H7.98051V7.58545C7.98051 7.49382 8.02633 7.448 8.11796 7.448H10.3539C11.0564 7.448 11.6063 7.64655 12.0033 8.04364C12.4004 8.43462 12.599 8.97833 12.599 9.67476ZM11.2061 10.5453C11.4199 10.3437 11.5268 10.0352 11.5268 9.61978C11.5268 9.20436 11.4199 8.89891 11.2061 8.70342C10.9984 8.50793 10.6716 8.41018 10.2256 8.41018H9.03433V10.8385H10.2256C10.6716 10.8385 10.9984 10.7408 11.2061 10.5453Z" fill="#8D3332"/>
<circle cx="9.5" cy="10.5" r="8.5" stroke="#A58A63" stroke-width="1.5" stroke-miterlimit="10" stroke-linecap="round" stroke-linejoin="round"/>
</svg>
