<svg width="150" height="55" viewBox="0 0 150 55" fill="none" xmlns="http://www.w3.org/2000/svg">
<path d="M69.6063 30.5782C66.8229 30.5782 64.5488 32.765 64.5488 35.7703C64.5488 38.7634 66.8229 40.9624 69.6063 40.9624C72.3896 40.9624 74.6637 38.7634 74.6637 35.7703C74.6637 32.765 72.3896 30.5782 69.6063 30.5782ZM69.6063 38.9222C68.0784 38.9222 66.7637 37.6273 66.7637 35.7703C66.7637 33.9012 68.0784 32.6184 69.6063 32.6184C71.1341 32.6184 72.4488 33.9012 72.4488 35.7703C72.4488 37.6273 71.1223 38.9222 69.6063 38.9222ZM58.5676 30.5782C55.7842 30.5782 53.5101 32.765 53.5101 35.7703C53.5101 38.7634 55.7842 40.9624 58.5676 40.9624C61.3509 40.9624 63.625 38.7634 63.625 35.7703C63.625 32.765 61.3509 30.5782 58.5676 30.5782ZM58.5676 38.9222C57.0397 38.9222 55.725 37.6273 55.725 35.7703C55.725 33.9012 57.0397 32.6184 58.5676 32.6184C60.0955 32.6184 61.4102 33.9012 61.4102 35.7703C61.4102 37.6273 60.0955 38.9222 58.5676 38.9222ZM45.4443 32.1786V34.3776H50.561C50.407 35.6115 50.0043 36.5278 49.4003 37.1508C48.6541 37.9205 47.4934 38.7634 45.4562 38.7634C42.3056 38.7634 39.8421 36.149 39.8421 32.8994C39.8421 29.6498 42.3056 27.0354 45.4562 27.0354C47.1499 27.0354 48.3935 27.7196 49.3055 28.6114L50.8097 27.0599C49.5305 25.8015 47.8368 24.8364 45.4443 24.8364C41.1331 24.8364 37.5088 28.4526 37.5088 32.9116C37.5088 37.3585 41.1331 40.9868 45.4443 40.9868C47.7776 40.9868 49.5305 40.205 50.9044 38.7268C52.3139 37.273 52.7521 35.2206 52.7521 33.5713C52.7521 33.0582 52.7166 32.5818 52.6337 32.1908H45.4443V32.1786ZM99.1099 33.889C98.6953 32.7284 97.4162 30.5782 94.7986 30.5782C92.2048 30.5782 90.0492 32.6795 90.0492 35.7703C90.0492 38.6779 92.1811 40.9624 95.0474 40.9624C97.357 40.9624 98.6953 39.5086 99.2402 38.6657L97.5228 37.4807C96.9543 38.348 96.1726 38.9222 95.0474 38.9222C93.9222 38.9222 93.1168 38.3847 92.6075 37.3463L99.3468 34.4754L99.1099 33.889ZM92.2403 35.6237C92.1811 33.6202 93.7445 32.594 94.8697 32.594C95.7462 32.594 96.4923 33.046 96.7411 33.6935L92.2403 35.6237ZM86.7683 40.657H88.9832V25.3862H86.7683V40.657ZM83.1441 31.7388H83.0611C82.5637 31.128 81.6162 30.5782 80.4081 30.5782C77.8853 30.5782 75.5757 32.8628 75.5757 35.7948C75.5757 38.7023 77.8853 40.9746 80.4081 40.9746C81.6043 40.9746 82.5637 40.4249 83.0611 39.7896H83.1322V40.5348C83.1322 42.5261 82.1018 43.589 80.4436 43.589C79.0934 43.589 78.2524 42.5872 77.909 41.7443L75.9784 42.575C76.535 43.9555 78.0037 45.6414 80.4436 45.6414C83.0375 45.6414 85.2286 44.0654 85.2286 40.2294V30.8959H83.1322V31.7388H83.1441ZM80.5976 38.9222C79.0697 38.9222 77.7905 37.6028 77.7905 35.7948C77.7905 33.9623 79.0697 32.6306 80.5976 32.6306C82.1018 32.6306 83.2862 33.9745 83.2862 35.7948C83.298 37.6028 82.1136 38.9222 80.5976 38.9222ZM109.485 25.3862H104.191V40.657H106.406V34.8663H109.497C111.949 34.8663 114.353 33.0338 114.353 30.1262C114.353 27.2187 111.925 25.3862 109.485 25.3862ZM109.533 32.7406H106.394V27.4997H109.533C111.191 27.4997 112.127 28.9168 112.127 30.114C112.127 31.3112 111.191 32.7406 109.533 32.7406ZM123.201 30.5538C121.602 30.5538 119.944 31.2868 119.257 32.8872L121.223 33.7301C121.637 32.8872 122.419 32.6062 123.236 32.6062C124.385 32.6062 125.546 33.3148 125.558 34.5731V34.7319C125.155 34.4998 124.302 34.1455 123.248 34.1455C121.128 34.1455 118.984 35.3427 118.984 37.5784C118.984 39.6186 120.713 40.938 122.656 40.938C124.136 40.938 124.966 40.2538 125.475 39.4475H125.546V40.6325H127.678V34.7808C127.69 32.0687 125.724 30.5538 123.201 30.5538ZM122.928 38.9222C122.206 38.9222 121.199 38.5435 121.199 37.6273C121.199 36.4545 122.455 36.0024 123.544 36.0024C124.515 36.0024 124.977 36.2223 125.558 36.5155C125.392 37.9205 124.208 38.9222 122.928 38.9222ZM135.459 30.8837L132.925 37.5051H132.854L130.224 30.8837H127.844L131.788 40.1439L129.537 45.2871H131.847L137.923 30.8837H135.459ZM115.561 40.657H117.776V25.3862H115.561V40.657Z" fill="#BEA57C"/>
<path fill-rule="evenodd" clip-rule="evenodd" d="M1.64806 42.9432C1.10053 42.7911 0.744141 42.2304 0.744141 41.3627V12.7225C0.744141 11.9189 1.0459 11.377 1.52425 11.1799L15.1694 27.1407L1.64806 42.9432ZM3.5284 42.3338L19.9529 32.7321L15.9525 28.0528L3.5284 42.3338ZM20.0678 21.4238L3.87217 11.9538L15.9779 26.2036L20.0678 21.4238ZM21.1604 22.0642L27.5049 25.7741C28.7062 26.4765 28.7172 27.6088 27.5049 28.3174L20.9999 32.1202L16.7569 27.1258L21.1604 22.0642Z" fill="#BEA57C"/>
<path d="M38.7764 21.4374H37.8999V18.9819H38.5987C39.2146 18.4321 39.5107 17.5037 39.4989 16.172V12.5559H44.2483V18.9819H45.0419V21.4374H44.1654V19.8859H38.7764V21.4374ZM40.4227 16.1843C40.4345 17.3448 40.2095 18.2733 39.7476 18.9941H43.3363V13.4599H40.4227V16.1843Z" fill="#BEA57C" stroke="#BEA57C" stroke-width="0.2" stroke-miterlimit="10"/>
<path d="M52.1599 18.9375C51.4611 19.6827 50.5965 20.0492 49.5542 20.0492C48.5119 20.0492 47.6473 19.6827 46.9485 18.9375C46.2497 18.1923 45.9062 17.2883 45.9062 16.2254C45.9062 15.1626 46.2497 14.2463 46.9485 13.5133C47.6473 12.7681 48.5119 12.4016 49.5542 12.4016C50.5847 12.4016 51.4493 12.7681 52.1599 13.5133C52.8587 14.2585 53.2141 15.1626 53.2141 16.2254C53.2141 17.3005 52.8587 18.2045 52.1599 18.9375ZM47.6236 18.3267C48.1448 18.8764 48.7962 19.1452 49.5542 19.1452C50.3123 19.1452 50.9637 18.8764 51.4848 18.3267C52.006 17.7769 52.2784 17.0806 52.2784 16.2254C52.2784 15.3703 52.0178 14.6739 51.4848 14.1242C50.9637 13.5744 50.3241 13.2934 49.5542 13.2934C48.7962 13.2934 48.1448 13.5622 47.6236 14.1119C47.1025 14.6739 46.8419 15.3703 46.8419 16.2254C46.8419 17.0806 47.1025 17.7769 47.6236 18.3267Z" fill="#BEA57C" stroke="#BEA57C" stroke-width="0.2" stroke-miterlimit="10"/>
<path d="M57.8101 20.0471C56.7678 20.0471 55.8914 19.6806 55.1807 18.9476C54.4701 18.2146 54.1147 17.3105 54.1147 16.211C54.1147 15.1237 54.4701 14.2075 55.1807 13.4745C55.8914 12.7415 56.7678 12.375 57.8101 12.375C58.8761 12.375 59.7525 12.7781 60.4158 13.5722L59.7762 14.2075C59.2906 13.5844 58.6392 13.279 57.7983 13.279C57.0284 13.279 56.3651 13.5478 55.8321 14.0853C55.2992 14.6229 55.0386 15.3314 55.0386 16.1988C55.0386 17.0662 55.2992 17.7748 55.8321 18.3123C56.3651 18.8498 57.0165 19.1186 57.7983 19.1186C58.651 19.1186 59.3735 18.7643 59.9776 18.0557L60.6172 18.7154C60.2974 19.1186 59.8828 19.4362 59.3972 19.6683C58.9116 19.9371 58.3786 20.0471 57.8101 20.0471Z" fill="#BEA57C" stroke="#BEA57C" stroke-width="0.2" stroke-miterlimit="10"/>
<path d="M64.3237 19.8859H63.4117V13.4599H61.4219V12.5559H66.3016V13.4599H64.3118V19.8859H64.3237Z" fill="#BEA57C" stroke="#BEA57C" stroke-width="0.2" stroke-miterlimit="10"/>
<path d="M72.5785 12.5559L69.8898 18.7375C69.5227 19.6049 68.966 20.0447 68.2317 20.0447C68.0185 20.0447 67.7816 19.9958 67.521 19.8859L67.7579 19.0185C67.9119 19.104 68.0659 19.1529 68.2317 19.1529C68.4449 19.1529 68.6107 19.1162 68.7291 19.0307C68.8476 18.9452 68.9542 18.7864 69.0489 18.5665L69.3095 17.9801L66.917 12.5559H67.9948L69.7477 16.7584H69.7833L71.5006 12.5559H72.5785Z" fill="#BEA57C" stroke="#BEA57C" stroke-width="0.2" stroke-miterlimit="10"/>
<path d="M73.6084 19.8859V12.5559H78.7487V19.8859H77.8367V13.4599H74.5204V19.8859H73.6084Z" fill="#BEA57C" stroke="#BEA57C" stroke-width="0.2" stroke-miterlimit="10"/>
<path d="M80.3735 19.8859V12.5559H81.2855V15.6956H84.8387V12.5559H85.7507V19.8859H84.8387V16.5752H81.2855V19.8859H80.3735Z" fill="#BEA57C" stroke="#BEA57C" stroke-width="0.2" stroke-miterlimit="10"/>
<path d="M93.2009 18.9375C92.5021 19.6827 91.6375 20.0492 90.5952 20.0492C89.553 20.0492 88.6884 19.6827 87.9896 18.9375C87.2908 18.1923 86.9473 17.2883 86.9473 16.2254C86.9473 15.1626 87.2908 14.2463 87.9896 13.5133C88.6884 12.7681 89.553 12.4016 90.5952 12.4016C91.6257 12.4016 92.4903 12.7681 93.2009 13.5133C93.8997 14.2585 94.2551 15.1626 94.2551 16.2254C94.2432 17.3005 93.8997 18.2045 93.2009 18.9375ZM88.6647 18.3267C89.1858 18.8764 89.8372 19.1452 90.5952 19.1452C91.3533 19.1452 92.0047 18.8764 92.5258 18.3267C93.047 17.7769 93.3194 17.0806 93.3194 16.2254C93.3194 15.3703 93.0588 14.6739 92.5258 14.1242C91.9928 13.5744 91.3533 13.2934 90.5952 13.2934C89.8372 13.2934 89.1858 13.5622 88.6647 14.1119C88.1317 14.6739 87.8711 15.3703 87.8711 16.2254C87.8711 17.0806 88.1317 17.7769 88.6647 18.3267Z" fill="#BEA57C" stroke="#BEA57C" stroke-width="0.2" stroke-miterlimit="10"/>
<path d="M97.9727 19.8859V12.5559H100.543C101.099 12.5559 101.585 12.7514 101.988 13.1179C102.402 13.5088 102.604 13.9853 102.604 14.5472C102.604 14.9015 102.521 15.2069 102.343 15.4635C102.165 15.7322 101.94 15.9277 101.644 16.0621V16.0987C102 16.2209 102.284 16.4286 102.509 16.734C102.734 17.0394 102.852 17.3815 102.852 17.7724C102.852 18.371 102.639 18.8719 102.213 19.2628C101.775 19.6904 101.265 19.8859 100.685 19.8859H97.9727ZM98.8847 15.6956H100.543C100.886 15.6956 101.159 15.5734 101.372 15.3413C101.585 15.1092 101.68 14.8526 101.68 14.5717C101.68 14.2907 101.585 14.0341 101.372 13.802C101.171 13.5699 100.91 13.4477 100.578 13.4477H98.8847V15.6956ZM98.8847 18.9819H100.72C101.076 18.9819 101.36 18.8597 101.573 18.6031C101.786 18.3466 101.905 18.0778 101.905 17.7724C101.905 17.467 101.798 17.1982 101.561 16.9539C101.336 16.7096 101.04 16.5752 100.673 16.5752H98.8728V18.9819H98.8847Z" fill="#BEA57C" stroke="#BEA57C" stroke-width="0.2" stroke-miterlimit="10"/>
</svg>
