<svg width="34" height="21" viewBox="0 0 34 21" fill="none" xmlns="http://www.w3.org/2000/svg">
    <path d="M12.4067 2.17798H21.6223V18.9176H12.4067V2.17798Z" fill="white"/>
    <path d="M12.9918 10.5773C12.9918 7.32403 14.4838 4.21862 17.0291 2.2075C12.4652 -1.43027 5.82415 -0.631735 2.25496 4.01159C-1.31424 8.65492 -0.553588 15.3389 4.03956 18.9471C7.87205 21.9934 13.2258 21.9934 17.0583 18.9471C14.4546 16.9064 12.9625 13.8306 12.9918 10.5773Z" fill="white" stroke="#C0AF95" stroke-miterlimit="10"/>
    <path d="M34.0268 10.5773C34.0268 16.4628 29.3166 21.2245 23.4948 21.2245C21.1251 21.2245 18.8431 20.4259 17 18.9472C21.5639 15.3094 22.3538 8.5958 18.7846 3.98205C18.258 3.30182 17.6729 2.71031 17 2.17796C21.5639 -1.45981 28.2049 -0.661276 31.8034 3.98205C33.2369 5.8453 34.0268 8.18175 34.0268 10.5773Z" fill="white" stroke="#C0AF95" stroke-miterlimit="10"/>
</svg>
