<svg width="65" height="18" viewBox="0 0 65 18" fill="none" xmlns="http://www.w3.org/2000/svg">
    <path fill-rule="evenodd" clip-rule="evenodd" d="M5.94997 -0.058263C6.53305 -0.0617263 8.26595 -0.216684 8.99997 2.24292C9.49441 3.89974 10.282 6.61369 11.3628 10.3848H11.803C12.9621 6.40903 13.7583 3.69508 14.1916 2.24292C14.9333 -0.242305 16.7875 -0.0582143 17.5291 -0.0582143L23.2513 -0.0582072V17.6145H17.4191V7.19967H17.028L13.7769 17.6145H9.38893L6.13779 7.19195H5.74671V17.6145H-0.0854492V-0.0582072L5.94997 -0.058263ZM31.6261 -0.0582072V10.3644H32.0914L36.0461 1.79396C36.8138 0.0884222 38.4499 -0.0582072 38.4499 -0.0582072H44.0937V17.6145H38.1398V7.19195H37.6745L33.7973 15.7624C33.0297 17.4602 31.316 17.6145 31.316 17.6145H25.6722V-0.0582072H31.6261ZM64.6733 8.33999C63.8428 10.6766 61.2346 12.3501 58.347 12.3501H52.1031V17.6145H46.4413V8.33999H64.6733Z" fill="white"/>
    <path fill-rule="evenodd" clip-rule="evenodd" d="M58.6203 -0.0581055H46.1445C46.4414 3.87644 49.8542 7.24467 53.3871 7.24467H65.0669C65.7409 3.9746 63.4206 -0.0581055 58.6203 -0.0581055Z" fill="white"/>
</svg>
