<svg width="56" height="18" viewBox="0 0 56 18" fill="none" xmlns="http://www.w3.org/2000/svg">
    <path d="M36.4662 0.027832C32.494 0.027832 28.9442 2.06608 28.9442 5.8319C28.9442 10.1506 35.2398 10.4489 35.2398 12.6185C35.2398 13.532 34.1824 14.3497 32.3762 14.3497C29.8129 14.3497 27.8971 13.2071 27.8971 13.2071L27.0773 17.0072C27.0773 17.0072 29.2843 17.9724 32.2144 17.9724C36.5574 17.9724 39.9747 15.8341 39.9747 12.0039C39.9747 7.44039 33.6528 7.15097 33.6528 5.13723C33.6528 4.42162 34.5209 3.63752 36.3219 3.63752C38.354 3.63752 40.0119 4.46853 40.0119 4.46853L40.8141 0.798245C40.8141 0.798245 39.0102 0.027832 36.4662 0.027832ZM0.124016 0.304835L0.027832 0.85884C0.027832 0.85884 1.69896 1.16162 3.20408 1.76559C5.14205 2.45817 5.28011 2.86135 5.60649 4.11362L9.16311 17.6867H13.9308L21.2757 0.304835H16.519L11.7994 12.1229L9.87356 2.10535C9.69694 0.958852 8.80231 0.304835 7.70723 0.304835H0.124016ZM23.1885 0.304835L19.457 17.6867H23.9929L27.7113 0.304835H23.1885ZM48.487 0.304835C47.3932 0.304835 46.8137 0.884554 46.3884 1.8976L39.743 17.6867H44.4997L45.42 15.0552H51.2151L51.7747 17.6867H55.9718L52.3103 0.304835H48.487ZM49.1056 5.00089L50.5156 11.5234H46.7382L49.1056 5.00089Z" fill="white"/>
</svg>
