<svg width="28" height="28" viewBox="0 0 28 28" fill="none" xmlns="http://www.w3.org/2000/svg">
<path d="M9.66667 14.6654H17.6667C18.04 14.6654 18.3333 14.372 18.3333 13.9987C18.3333 13.6254 18.04 13.332 17.6667 13.332H9.66667C9.29333 13.332 9 13.6254 9 13.9987C9 14.372 9.29333 14.6654 9.66667 14.6654Z" fill="#BDA47F"/>
<path d="M9.66667 18.3333H17.6667C18.04 18.3333 18.3333 18.04 18.3333 17.6667C18.3333 17.2933 18.04 17 17.6667 17H9.66667C9.29333 17 9 17.2933 9 17.6667C9 18.04 9.29333 18.3333 9.66667 18.3333Z" fill="#BDA47F"/>
<path d="M9.66667 22.0013H17.6667C18.04 22.0013 18.3333 21.708 18.3333 21.3346C18.3333 20.9613 18.04 20.668 17.6667 20.668H9.66667C9.29333 20.668 9 20.9613 9 21.3346C9 21.708 9.29333 22.0013 9.66667 22.0013Z" fill="#BDA47F"/>
<path d="M22.1467 8.85464L18.1467 4.85464C18.0133 4.7213 17.8533 4.66797 17.6667 4.66797H14.12H13H11.6667H11.1067H9.53333V6.0013H11.6667H17V9.33464C17 9.70797 17.2933 10.0013 17.6667 10.0013H21V24.668H6.33333V6.0013H7.13333V4.66797H5.66667C5.29333 4.66797 5 4.9613 5 5.33464V25.3346C5 25.708 5.29333 26.0013 5.66667 26.0013H21.6667C22.04 26.0013 22.3333 25.708 22.3333 25.3346V9.33464C22.3333 9.17464 22.2533 8.98797 22.1467 8.85464ZM18.3333 8.66797V6.93464L20.0667 8.66797H18.3333Z" fill="#BDA47F"/>
<path d="M11.0003 7.33333C10.627 7.33333 10.3337 7.62667 10.3337 8V9.66667C10.3337 10.04 10.0403 10.3333 9.66699 10.3333C9.29366 10.3333 9.00033 10.04 9.00033 9.66667V6.93333V6V4.66667V4.53333H9.02699C9.08033 3.86667 9.64033 3.33333 10.3337 3.33333C10.627 3.33333 10.8937 3.44 11.107 3.6C11.3203 3.76 11.4803 3.97333 11.5603 4.24H12.947C12.9203 4.02667 12.8403 3.81333 12.7603 3.6C12.3337 2.66667 11.4003 2 10.3337 2C8.89366 2 7.69366 3.17333 7.66699 4.61333V6.68V9.66667C7.66699 10.76 8.57366 11.6667 9.66699 11.6667C10.7603 11.6667 11.667 10.76 11.667 9.66667V8C11.667 7.62667 11.3737 7.33333 11.0003 7.33333Z" fill="#8D3332"/>
</svg>
