<svg width="205" height="67" viewBox="0 0 205 67" fill="none" xmlns="http://www.w3.org/2000/svg">
<path d="M49.5297 9.48315L50.8329 11.2178L52.5439 11.6245L51.6941 12.4021L53.0199 14.2563L51.0822 12.9285L50.051 13.7419L49.8017 12.0193L47.8413 10.5957L49.677 10.9665L49.5297 9.48315Z" fill="#BDA47F"/>
<path d="M57.1313 19.6038L58.6837 21.6853L60.3155 21.8049L59.7262 23.1089L61.3466 25.3579L59.2956 24.0061L58.5477 25.4297L57.9358 23.073L55.8281 21.6016L57.5845 21.6374L57.1313 19.6038Z" fill="#BDA47F"/>
<path d="M59.1501 32.8101L61.2011 35.7888L63.1615 35.394L62.5836 37.8464L64.7366 41.1362L62.1303 39.581L61.3031 42.4162L60.3739 38.4805L57.6543 36.71L59.8413 36.1118L59.1501 32.8101Z" fill="#BDA47F"/>
<path d="M19.8037 2.16138L21.0389 4.6018L24.7897 5.47509L21.8321 6.26464L23.0219 8.92039L19.6564 6.80296L15.9396 7.67625L17.4354 5.36742L14.0586 3.11841L18.3986 4.01562L19.8037 2.16138Z" fill="#BDA47F"/>
<path d="M48.306 46.9983L50.9463 51.8432L54.3344 50.3838L52.7367 55.2407L55.5696 60.8034L51.4902 58.8296L49.1899 65.0742L48.7253 57.4179L44.4419 55.0134L48.5213 52.9797L48.306 46.9983Z" fill="#BDA47F"/>
<path d="M9.98295 15.5L11.3767 19.364L17.0879 19.7349L12.2606 22.0796L13.5751 26.4819L8.57783 23.8022L1.97147 26.757L5.24632 21.9241L0.135742 18.9094L7.21803 19.1606L9.98295 15.5Z" fill="#BDA47F"/>
<path d="M21.6196 39.3782L23.7387 44.917L29.6085 43.637L25.1551 48.8647L27.3195 55.3964L21.6423 52.8364L15.1153 60.0021L17.8122 50.9941L11.8857 47.9197L19.3986 45.9458L21.6196 39.3782Z" fill="#BDA47F"/>
<path d="M36.3049 2.25732L37.5174 4.06372L39.8177 4.73364L38.3106 5.29589L39.5118 7.22191L37.2228 5.66674L35.3757 6.24096L35.693 4.61401L33.3813 2.95117L35.9196 3.63305L36.3049 2.25732Z" fill="#BDA47F"/>
<path d="M154.144 34.6522C147.071 34.6522 141.189 29.0733 141.189 21.0706C141.189 13.2182 146.597 7.3789 154.305 7.3789C160.904 7.3789 164.284 11.6557 165.434 13.3083L169.298 9.47222C168.219 7.97985 166.957 6.77794 165.383 5.66618C163.406 4.27397 159.764 2.21069 154.295 2.21069C150.239 2.21069 144.872 3.24233 140.564 7.73947C136.972 11.4554 135.357 16.263 135.357 21.0706C135.357 25.8783 136.871 30.5757 140.876 34.552C143.994 37.657 148.161 39.8204 153.993 39.8204C161.64 39.8204 165.757 35.6838 167.674 32.9996C167.775 32.8694 167.845 32.7291 167.936 32.5889L163.981 28.6627C162.215 32.2484 158.664 34.6522 154.144 34.6522Z" fill="#BDA47F"/>
<path d="M94.1226 8.10082H79.6544V16.7846H86.939V21.9428H79.6544V33.9318H94.1226V39.1H74.0347V2.93262H94.1226V8.10082Z" fill="#BDA47F"/>
<path d="M95.8193 39.1L103.104 2.16138L116.109 27.3714L129.276 2.16138L135.783 39.1H130.053L126.41 18.0266L115.796 39.8712L105.344 17.9765L101.54 39.1H95.8193Z" fill="#BDA47F"/>
<path d="M78.5238 52.9719C78.5238 53.8332 78.3422 54.3841 77.8983 54.8649C77.3938 55.4158 76.7077 55.7062 75.951 55.7062C75.2246 55.7062 74.5587 55.4358 74.0643 54.945C73.3682 54.2539 73.3682 53.4226 73.3682 51.9903C73.3682 50.5881 73.3682 49.7167 74.0643 49.0256C74.5688 48.5148 75.2145 48.2644 75.9712 48.2644C76.9499 48.2644 77.4745 48.615 78.1606 49.256L77.636 49.7768C77.1517 49.296 76.7279 48.9555 75.9914 48.9555C75.4869 48.9555 75.0228 49.1358 74.6899 49.4763C74.1551 50.0172 74.1753 50.8986 74.1753 51.9703V52.2407C74.1753 53.5929 74.2762 54.0636 74.6899 54.4743C75.0228 54.8048 75.4768 54.9851 75.9611 54.9851C76.506 54.9851 77.0205 54.7647 77.3434 54.3641C77.636 54.0235 77.747 53.6229 77.747 53.022V52.4711H75.951V51.78H78.5238V52.9719Z" fill="#BDA47F"/>
<path d="M82.7202 51.7101C83.6384 51.7101 84.1933 51.2193 84.1933 50.378C84.1933 49.5366 83.6484 49.0358 82.7202 49.0358H80.7528V51.7201H82.7202V51.7101ZM84.2034 55.6463L82.5184 52.4012H80.7528V55.6463H79.9658V48.3247H82.7908C84.1025 48.3247 84.9802 49.126 84.9802 50.3579C84.9802 51.029 84.728 51.5598 84.2538 51.9304C84.0117 52.1207 83.8301 52.2009 83.3659 52.3211L85.1215 55.6363H84.2034V55.6463Z" fill="#BDA47F"/>
<path d="M89.9955 49.4863C89.6525 49.1458 89.1984 48.9655 88.7242 48.9655C88.25 48.9655 87.7859 49.1458 87.453 49.4863C86.888 50.0372 86.9384 50.8685 86.9384 51.9803C86.9384 52.9619 86.8779 53.9034 87.453 54.4743C87.796 54.8148 88.2399 55.0051 88.7242 55.0051C89.2085 55.0051 89.6525 54.8248 89.9955 54.4743C90.5706 53.9034 90.51 52.9518 90.51 51.9803C90.51 50.9687 90.5605 50.0472 89.9955 49.4863ZM90.6109 54.945C90.1166 55.4358 89.4608 55.7062 88.7242 55.7062C87.9877 55.7062 87.3319 55.4358 86.8375 54.945C86.1615 54.2739 86.1414 53.4426 86.1414 51.9903C86.1414 50.9487 86.0707 49.7868 86.8375 49.0256C87.3319 48.5348 87.9978 48.2644 88.7242 48.2644C89.4507 48.2644 90.1065 48.5348 90.6109 49.0256C91.3777 49.7868 91.3071 50.9487 91.3071 51.9903C91.297 53.4526 91.2869 54.2739 90.6109 54.945Z" fill="#BDA47F"/>
<path d="M97.8834 53.2327C97.8834 54.685 96.8038 55.7167 95.3005 55.7167C93.7972 55.7167 92.7378 54.685 92.7378 53.2327V48.335H93.5248V53.1726C93.5248 54.2844 94.231 55.0156 95.3005 55.0156C96.3801 55.0156 97.0863 54.2844 97.0863 53.1726V48.335H97.8733V53.2327" fill="#BDA47F"/>
<path d="M102.253 51.9404C103.232 51.9404 103.817 51.3896 103.817 50.4781C103.817 49.5667 103.232 49.0258 102.253 49.0258H100.366V51.9304H102.253V51.9404ZM102.334 48.3247C103.696 48.3247 104.614 49.1861 104.614 50.4781C104.614 51.7702 103.706 52.6416 102.334 52.6416H100.376V55.6563H99.5894V48.3347H102.334V48.3247Z" fill="#BDA47F"/>
<path d="M111.232 49.4861C110.889 49.1456 110.435 48.9653 109.961 48.9653C109.486 48.9653 109.032 49.1456 108.689 49.4861C108.124 50.037 108.165 50.8683 108.165 51.9801C108.165 52.9616 108.104 53.9031 108.689 54.474C109.032 54.8146 109.476 55.0049 109.961 55.0049C110.445 55.0049 110.889 54.8246 111.232 54.474C111.807 53.9031 111.746 52.9516 111.746 51.9801C111.756 50.9685 111.797 50.047 111.232 49.4861ZM111.847 54.9448C111.353 55.4355 110.697 55.706 109.961 55.706C109.224 55.706 108.568 55.4355 108.074 54.9448C107.398 54.2737 107.378 53.4424 107.378 51.9901C107.378 50.9484 107.307 49.7866 108.074 49.0254C108.568 48.5346 109.234 48.2642 109.961 48.2642C110.687 48.2642 111.353 48.5346 111.847 49.0254C112.614 49.7866 112.543 50.9484 112.543 51.9901C112.543 53.4524 112.523 54.2737 111.847 54.9448Z" fill="#BDA47F"/>
<path d="M114.867 49.0258V51.7201H118.095V52.4212H114.867V55.6463H114.08V48.3247H118.66V49.0258H114.867Z" fill="#BDA47F"/>
<path d="M123.966 55.7065C123.22 55.7065 122.554 55.436 122.059 54.9453C121.323 54.2041 121.363 53.1724 121.363 51.9806C121.363 50.5783 121.343 49.727 122.059 49.0158C122.554 48.5151 123.22 48.2546 123.956 48.2546C124.854 48.2546 125.359 48.5651 126.014 49.1461L125.49 49.6669C125.036 49.2262 124.632 48.9558 123.966 48.9558C123.462 48.9558 123.008 49.136 122.675 49.4666C122.18 49.9774 122.16 50.7887 122.16 51.9806V52.261C122.16 53.6031 122.261 54.0839 122.675 54.4945C123.008 54.8351 123.452 55.0054 123.966 55.0054C124.632 55.0054 125.036 54.7249 125.49 54.2942L126.014 54.8151C125.369 55.386 124.854 55.7065 123.966 55.7065Z" fill="#BDA47F"/>
<path d="M130.798 49.4861C130.455 49.1456 130.001 48.9653 129.527 48.9653C129.053 48.9653 128.599 49.1456 128.256 49.4861C127.701 50.037 127.741 50.8683 127.741 51.9801C127.741 52.9616 127.681 53.9031 128.256 54.474C128.599 54.8146 129.043 55.0049 129.527 55.0049C130.021 55.0049 130.465 54.8246 130.798 54.474C131.373 53.9031 131.313 52.9516 131.313 51.9801C131.323 50.9685 131.363 50.047 130.798 49.4861ZM131.414 54.9448C130.919 55.4355 130.263 55.706 129.527 55.706C128.79 55.706 128.145 55.4355 127.64 54.9448C126.964 54.2737 126.944 53.4424 126.944 51.9901C126.944 50.9484 126.873 49.7866 127.64 49.0254C128.135 48.5346 128.801 48.2642 129.527 48.2642C130.253 48.2642 130.919 48.5346 131.414 49.0254C132.18 49.7866 132.11 50.9484 132.11 51.9901C132.11 53.4524 132.09 54.2737 131.414 54.9448Z" fill="#BDA47F"/>
<path d="M139.172 55.6463V50.0875L137.154 54.4945H136.488L134.43 50.0875V55.6463H133.643V48.3247H134.43L136.831 53.5129L139.172 48.3247H139.959V55.6463H139.172Z" fill="#BDA47F"/>
<path d="M144.41 51.9404C145.388 51.9404 145.973 51.3896 145.973 50.4781C145.973 49.5667 145.388 49.0258 144.41 49.0258H142.523V51.9304H144.41V51.9404ZM144.48 48.3247C145.842 48.3247 146.76 49.1861 146.76 50.4781C146.76 51.7702 145.852 52.6416 144.48 52.6416H142.523V55.6563H141.736V48.3347H144.48V48.3247Z" fill="#BDA47F"/>
<path d="M149.703 49.4465L148.31 53.3126H151.065L149.703 49.4465ZM151.882 55.6463L151.297 53.9837H148.078L147.483 55.6463H146.646L149.36 48.3247H150.025L152.729 55.6463H151.882Z" fill="#BDA47F"/>
<path d="M158.441 55.6463L154.526 49.777V55.6463H153.739V48.3247H154.486L158.39 54.174V48.3247H159.187V55.6463H158.441Z" fill="#BDA47F"/>
<path d="M161.722 48.3247H160.935V55.6463H161.722V48.3247Z" fill="#BDA47F"/>
<path d="M163.475 55.6463V48.3247H168.056V49.0258H164.262V51.6099H167.491V52.301H164.262V54.9452H168.056V55.6463H163.475Z" fill="#BDA47F"/>
<path d="M172.427 49.1055C172.145 48.9953 171.812 48.9452 171.479 48.9452C170.48 48.9452 169.885 49.446 169.885 50.3174C169.885 51.0085 170.319 51.4192 171.206 51.5494L172.014 51.6696C172.69 51.7697 173.043 51.8999 173.355 52.1804C173.769 52.5309 173.981 53.0217 173.981 53.6327C173.981 54.9247 172.982 55.706 171.338 55.706C170.833 55.706 170.339 55.6158 169.935 55.4456C169.552 55.2953 169.35 55.1451 168.896 54.7344L169.431 54.2036C169.814 54.5642 169.986 54.6743 170.308 54.8045C170.621 54.9247 170.984 55.0049 171.398 55.0049C172.528 55.0049 173.184 54.5041 173.184 53.6327C173.184 53.2521 173.073 52.9416 172.831 52.7313C172.609 52.5409 172.427 52.4608 171.862 52.3807L171.005 52.2505C169.733 52.0502 169.088 51.4092 169.088 50.3375C169.088 49.0454 169.996 48.2642 171.509 48.2642C171.933 48.2642 172.347 48.3343 172.69 48.4645C173.033 48.5947 173.224 48.7149 173.638 49.0654L173.134 49.5662C172.841 49.3058 172.7 49.2157 172.427 49.1055Z" fill="#BDA47F"/>
<path d="M73.6519 65.9329V58.6113H78.2324V59.3124H74.4388V61.8965H77.6674V62.5876H74.4388V65.2318H78.2324V65.9329H73.6519Z" fill="#BDA47F"/>
<path d="M84.5665 63.5191C84.5665 64.9714 83.4869 66.0031 81.9836 66.0031C80.4803 66.0031 79.4209 64.9714 79.4209 63.5191V58.6113H80.2079V63.449C80.2079 64.5608 80.9141 65.2919 81.9836 65.2919C83.0632 65.2919 83.7795 64.5608 83.7795 63.449V58.6113H84.5665V63.5191Z" fill="#BDA47F"/>
<path d="M89.028 61.9967C89.9461 61.9967 90.5011 61.5059 90.5011 60.6646C90.5011 59.8233 89.9461 59.3124 89.028 59.3124H87.0606V61.9967H89.028ZM90.5111 65.9329L88.8363 62.6878H87.0707V65.9329H86.2837V58.6113H89.1087C90.4203 58.6113 91.2981 59.4126 91.2981 60.6446C91.2981 61.3156 91.0459 61.8465 90.5717 62.2171C90.3295 62.3973 90.1479 62.4775 89.6939 62.6077L91.4394 65.9229H90.5111V65.9329Z" fill="#BDA47F"/>
<path d="M96.3122 59.7725C95.9692 59.4319 95.5152 59.2517 95.041 59.2517C94.5668 59.2517 94.1027 59.4319 93.7697 59.7725C93.2047 60.3334 93.2451 61.1547 93.2451 62.2664C93.2451 63.238 93.1845 64.1895 93.7697 64.7604C94.1127 65.1009 94.5567 65.2912 95.041 65.2912C95.5253 65.2912 95.9692 65.1009 96.3122 64.7604C96.8974 64.1795 96.8268 63.238 96.8268 62.2664C96.8268 61.2548 96.8671 60.3334 96.3122 59.7725ZM96.9176 65.2311C96.4232 65.7219 95.7674 65.9924 95.0309 65.9924C94.2944 65.9924 93.6385 65.7219 93.1442 65.2311C92.4682 64.5601 92.448 63.7288 92.448 62.2664C92.448 61.2248 92.3774 60.0629 93.1442 59.3017C93.6385 58.811 94.3044 58.5405 95.0309 58.5405C95.7573 58.5405 96.4232 58.8009 96.9176 59.3017C97.6844 60.0629 97.6138 61.2248 97.6138 62.2664C97.6138 63.7388 97.5936 64.5601 96.9176 65.2311Z" fill="#BDA47F"/>
<path d="M101.809 62.2271C102.788 62.2271 103.373 61.6862 103.373 60.7647C103.373 59.8433 102.798 59.3124 101.809 59.3124H99.9222V62.2271H101.809ZM101.88 58.6113C103.242 58.6113 104.16 59.4727 104.16 60.7647C104.16 62.0568 103.242 62.9182 101.88 62.9182H99.9222V65.9329H99.1353V58.6113H101.88Z" fill="#BDA47F"/>
<path d="M105.343 65.9329V58.6113H109.924V59.3124H106.14V61.8965H109.369V62.5876H106.14V65.2318H109.924V65.9329H105.343Z" fill="#BDA47F"/>
<path d="M113.704 59.7331L112.311 63.5992H115.066L113.704 59.7331ZM115.893 65.9329L115.298 64.2803H112.079L111.484 65.9329H110.646L113.361 58.6113H114.026L116.73 65.9329H115.893Z" fill="#BDA47F"/>
<path d="M122.453 65.9329L118.538 60.0636V65.9329H117.751V58.6113H118.498L122.413 64.4606V58.6113H123.2V65.9329H122.453Z" fill="#BDA47F"/>
<path d="M132.411 65.9327V60.3739L130.393 64.7809H129.717L127.669 60.3739V65.9327H126.882V58.6111H127.669L130.07 63.7993L132.411 58.6111H133.198V65.9327H132.411Z" fill="#BDA47F"/>
<path d="M134.964 65.9327V58.6111H139.534V59.3122H135.751V61.8963H138.979V62.5874H135.751V65.2316H139.534V65.9327H134.964Z" fill="#BDA47F"/>
<path d="M143.176 65.2318C143.791 65.2318 144.306 65.0515 144.629 64.701C144.962 64.3404 145.113 63.7395 145.113 62.7479V62.197C145.113 60.7547 145.012 60.264 144.629 59.8533C144.296 59.5027 143.801 59.3225 143.176 59.3225H141.571V65.2418H143.176V65.2318ZM143.307 58.6113C144.074 58.6113 144.719 58.8517 145.173 59.2924C145.779 59.8934 145.9 60.7748 145.9 61.576V62.167C145.9 63.1986 145.95 64.4606 145.173 65.2519C144.74 65.6926 144.074 65.9329 143.307 65.9329H140.774V58.6113H143.307Z" fill="#BDA47F"/>
<path d="M148.22 58.6113H147.433V65.9329H148.22V58.6113Z" fill="#BDA47F"/>
<path d="M152.356 65.9924C151.61 65.9924 150.944 65.7219 150.449 65.2311C149.713 64.49 149.753 63.4483 149.753 62.2664C149.753 60.8642 149.733 60.0129 150.449 59.3017C150.944 58.811 151.61 58.5405 152.346 58.5405C153.244 58.5405 153.759 58.851 154.405 59.4319L153.88 59.9628C153.426 59.5221 153.022 59.2416 152.356 59.2416C151.852 59.2416 151.398 59.4219 151.065 59.7525C150.571 60.2532 150.55 61.0645 150.55 62.2564V62.5369C150.55 63.889 150.651 64.3598 151.065 64.7704C151.398 65.111 151.842 65.2812 152.356 65.2812C153.022 65.2812 153.426 65.0008 153.88 64.5601L154.405 65.0809C153.759 65.6719 153.244 65.9924 152.356 65.9924Z" fill="#BDA47F"/>
<path d="M158.131 59.7331L156.739 63.5992H159.493L158.131 59.7331ZM160.31 65.9329L159.715 64.2803H156.497L155.901 65.9329H155.064L157.778 58.6113H158.434L161.138 65.9329H160.31Z" fill="#BDA47F"/>
<path d="M162.154 65.9327V58.6111H162.941V65.2316H166.715V65.9327H162.154Z" fill="#BDA47F"/>
<path d="M171.973 65.9924C171.226 65.9924 170.56 65.7219 170.066 65.2311C169.329 64.49 169.37 63.4483 169.37 62.2664C169.37 60.8642 169.349 60.0129 170.066 59.3017C170.56 58.811 171.226 58.5405 171.963 58.5405C172.86 58.5405 173.365 58.851 174.021 59.4319L173.496 59.9628C173.042 59.5221 172.638 59.2416 171.973 59.2416C171.468 59.2416 171.004 59.4219 170.671 59.7525C170.177 60.2532 170.157 61.0645 170.157 62.2564V62.5369C170.157 63.889 170.257 64.3598 170.671 64.7704C171.004 65.111 171.448 65.2812 171.973 65.2812C172.628 65.2812 173.042 65.0008 173.496 64.5601L174.021 65.0809C173.385 65.6719 172.86 65.9924 171.973 65.9924Z" fill="#BDA47F"/>
<path d="M175.312 65.9329V58.6113H179.883V59.3124H176.099V61.8965H179.328V62.5876H176.099V65.2318H179.883V65.9329H175.312Z" fill="#BDA47F"/>
<path d="M185.835 65.9329L181.921 60.0636V65.9329H181.134V58.6113H181.88L185.795 64.4606V58.6113H186.582V65.9329H185.835Z" fill="#BDA47F"/>
<path d="M190.595 59.3124V65.9329H189.818V59.3124H187.679V58.6113H192.733V59.3124H190.595Z" fill="#BDA47F"/>
<path d="M193.845 65.9329V58.6113H198.426V59.3124H194.632V61.8965H197.861V62.5876H194.632V65.2318H198.426V65.9329H193.845Z" fill="#BDA47F"/>
<path d="M202.421 61.9965C203.34 61.9965 203.894 61.5057 203.894 60.6643C203.894 59.823 203.34 59.3122 202.421 59.3122H200.454V61.9965H202.421ZM203.905 65.9327L202.23 62.6876H200.454V65.9327H199.667V58.6111H202.492C203.804 58.6111 204.681 59.4124 204.681 60.6443C204.681 61.3154 204.429 61.8462 203.955 62.2168C203.713 62.3971 203.531 62.4772 203.077 62.6074L204.823 65.9227H203.905V65.9327Z" fill="#BDA47F"/>
</svg>
