<svg width="32" height="32" viewBox="0 0 734 740" fill="none" xmlns="http://www.w3.org/2000/svg">
<path d="M373.609 57.5732C206.575 57.5732 70.7061 193.443 70.7061 360.476C70.7061 426.72 92.0752 488.154 128.401 538.018L90.648 650.558L207.108 613.348C255.008 645.045 312.17 663.384 373.785 663.384C540.818 663.384 676.688 527.51 676.688 360.481C676.688 193.448 540.818 57.5783 373.785 57.5783H373.609V57.5732Z" fill="#6EBF63"/>
<path d="M289.022 211.434C283.147 197.367 278.694 196.835 269.793 196.473C266.414 196.255 263.028 196.138 259.642 196.121C248.062 196.121 235.956 199.503 228.653 206.982C219.753 216.063 197.67 237.251 197.67 280.703C197.67 324.155 229.367 366.18 233.639 372.06C238.091 377.93 295.434 468.392 384.469 505.261C454.095 534.108 474.756 531.435 490.602 528.052C513.75 523.067 542.778 505.964 550.081 485.314C557.383 464.653 557.383 447.023 555.242 443.284C553.106 439.545 547.226 437.414 538.326 432.956C529.425 428.504 486.149 407.134 477.957 404.285C469.941 401.259 462.287 402.33 456.236 410.878C447.687 422.809 439.32 434.921 432.55 442.219C427.208 447.918 418.478 448.631 411.181 445.601C401.386 441.51 373.966 431.886 340.128 401.792C313.949 378.468 296.143 349.445 290.982 340.72C285.815 331.82 290.449 326.648 294.54 321.844C298.993 316.32 303.265 312.405 307.717 307.239C312.17 302.078 314.663 299.404 317.512 293.348C320.543 287.473 318.402 281.417 316.266 276.964C314.13 272.511 296.324 229.059 289.022 211.434Z" fill="#FEFEFE"/>
</svg>
