<svg width="71" height="14" viewBox="0 0 71 14" xmlns="http://www.w3.org/2000/svg">
    <path d="M0 12.9115H3.2555V0.2805H0V12.9115Z"/>
    <path d="M10.6935 12.9115H13.9405V2.652H19.8735V0.2805H4.75203V2.652H10.6935V12.9115Z"/>
    <path d="M21.3669 12.9115H34.7799V10.54H24.6224V7.514H33.9129V5.338H24.6224V2.652H34.6439V0.2805H21.3669V12.9115Z"/>
    <path d="M44.4314 13.2175C49.2169 13.2175 52.7274 11.05 53.0334 7.6585H49.8544C49.5739 9.7495 47.2534 10.9055 44.4824 10.9055C41.3119 10.9055 39.0254 9.384 39.0254 6.6045C39.0254 3.7995 41.3119 2.295 44.4824 2.295C47.1599 2.295 49.4634 3.4935 49.8119 5.4995H52.9909C52.6594 2.142 49.1914 0 44.4314 0C39.1954 0 35.7359 2.38 35.7359 6.6045C35.7359 10.8375 39.1954 13.2175 44.4314 13.2175Z"/>
    <path d="M67.5552 12.9115H70.8107V0.2805H67.5552V5.134H58.3242V0.2805H55.0687V12.9115H58.3242V7.497H67.5552V12.9115Z"/>
</svg>
