<svg width="20" height="20" viewBox="0 0 20 20" fill="none" xmlns="http://www.w3.org/2000/svg">
<path d="M2.96283 13.0821V3.57394C2.96283 3.25745 3.20571 3 3.50012 3H16.4628C16.7572 3 17.0001 3.25745 17.0001 3.57394V4.98584M9.00012 13.0821H1.66675L1.66676 14.7222C1.66676 14.8741 1.92433 15 2.23494 15H9.00012" stroke="#373737" stroke-miterlimit="10" stroke-linecap="round" stroke-linejoin="round"/>
<path d="M18 16.7126C18 17.4193 17.3166 18 16.4931 18H12.5069C11.6746 18 11 17.4193 11 16.7126V8.28778C11 7.58113 11.6834 7 12.5069 7H16.4931C17.3254 7 18 7.58113 18 8.28778V16.7126Z" stroke="#373737" stroke-miterlimit="10" stroke-linecap="round" stroke-linejoin="round"/>
<path d="M15.7778 12.2222H13" stroke="#373737" stroke-miterlimit="10" stroke-linecap="round" stroke-linejoin="round"/>
<path d="M14.3889 13.6111V10.8333" stroke="#373737" stroke-miterlimit="10" stroke-linecap="round" stroke-linejoin="round"/>
</svg>
