<svg width="19" height="17" viewBox="0 0 19 17" fill="none" xmlns="http://www.w3.org/2000/svg">
<g clip-path="url(#clip0_1782_47326)">
<path fill-rule="evenodd" clip-rule="evenodd" d="M2.66415 14.8395V15.9464C2.66415 16.2935 2.94552 16.5748 3.2926 16.5748H4.11807C4.46515 16.5748 4.74652 16.2935 4.74652 15.9464V15.1537C4.74652 14.9801 4.88721 14.8395 5.06075 14.8395H9.60528H9.60544H14.15C14.3235 14.8395 14.4642 14.9801 14.4642 15.1537V15.9464C14.4642 16.2935 14.7456 16.5748 15.0927 16.5748H15.9181C16.2652 16.5748 16.5466 16.2935 16.5466 15.9464V14.8395L16.8797 14.5064C17.2261 14.1599 17.447 13.7078 17.5072 13.2216L17.759 11.1901C17.8274 10.6382 17.6842 10.0809 17.3583 9.63032L16.4678 8.39934C16.3512 8.23817 16.257 8.06193 16.1878 7.87545L14.8543 4.28241C14.7172 3.91291 14.3646 3.66772 13.9705 3.66772H9.60544H9.60528H5.24021C4.84609 3.66772 4.49356 3.91291 4.35643 4.28241L3.02294 7.87545C2.95373 8.06193 2.85954 8.23817 2.74295 8.39934L1.85246 9.63032C1.52651 10.0809 1.38333 10.6382 1.45173 11.1901L1.70352 13.2216C1.76378 13.7078 1.98463 14.1599 2.33106 14.5064L2.66415 14.8395ZM9.60544 8.15647H9.60528H4.84816C4.42115 8.15647 4.11847 7.73977 4.2505 7.33369L5.06812 4.81909C5.15229 4.56021 5.39356 4.38496 5.66578 4.38496H9.60528H9.60544H13.545C13.8172 4.38496 14.0584 4.56021 14.1426 4.81909L14.9602 7.33369C15.0923 7.73977 14.7896 8.15647 14.3626 8.15647H9.60544ZM1.37884 8.65442C1.86443 8.65442 2.73711 7.9202 2.73711 7.43461C2.73711 6.94902 1.86443 6.89595 1.37884 6.89595C0.893252 6.89595 0.499603 7.2896 0.499603 7.77519C0.499603 8.26078 0.893252 8.65442 1.37884 8.65442ZM3.99999 11.8134C4.55228 11.8134 4.99999 11.3657 4.99999 10.8134C4.99999 10.2611 4.55228 9.81343 3.99999 9.81343C3.44771 9.81343 2.99999 10.2611 2.99999 10.8134C2.99999 11.3657 3.44771 11.8134 3.99999 11.8134ZM15 11.8134C15.5523 11.8134 16 11.3657 16 10.8134C16 10.2611 15.5523 9.81343 15 9.81343C14.4477 9.81343 14 10.2611 14 10.8134C14 11.3657 14.4477 11.8134 15 11.8134ZM17.8212 8.5825C17.3357 8.5825 16.463 7.84828 16.463 7.36269C16.463 6.8771 17.3357 6.82402 17.8212 6.82402C18.3068 6.82402 18.7005 7.21767 18.7005 7.70326C18.7005 8.18885 18.3068 8.5825 17.8212 8.5825Z" fill="#8D3332"/>
</g>
<defs>
<clipPath id="clip0_1782_47326">
<rect width="19" height="16" fill="white" transform="translate(0 0.813477)"/>
</clipPath>
</defs>
</svg>
